<?xml version="1.0" encoding="utf-8"?>
<!-- Generator: Adobe Illustrator 25.0.1, SVG Export Plug-In . SVG Version: 6.00 Build 0)  -->
<svg version="1.1" id="Layer_1" xmlns="http://www.w3.org/2000/svg" xmlns:xlink="http://www.w3.org/1999/xlink" x="0px" y="0px"
	 viewBox="0 0 917.58 231.07" style="enable-background:new 0 0 917.58 231.07;" xml:space="preserve">
<style type="text/css">
	.st0{fill:#231F20;}
</style>
<g>
	<path class="st0" d="M834.91,51.63c0.74,3.47,10.39,10.61,9.54,5.07c17.04,110.16-199,41.39-244.35,31.75
		C538.53,75.38,477.46,59.77,415.56,48.3C315.43,29.75,159.24-2.48,64.5,57.15c-102.45,64.48-24.27,212.55,49.36,139.56
		c3.84-3.81-6.58-14.08-10.61-11.98c-69.64-51.72-76.24-86.82-19.8-105.29c33.26-24.75,71.08-35.36,113.48-31.82
		c30.22-2.46,60.96-2.09,91.19-0.5C387.6,52.33,484.99,76.9,582.2,97.59c76.02,16.18,214.07,67.62,285.65,12.06
		C967.1,32.61,818.2-27,834.91,51.63z"/>
	<path class="st0" d="M763.55,57.37c-17.97,17.87-60.51,3.02-81.56-0.3c-24.43-3.86-48.55-7.37-73.19-9.54
		c-1.01-0.09,0.32,1.57,0.81,1.68c33.21,8.03,66.6,13.86,100.24,19.86c19.73,3.51,49.37,16.17,58.76-7.54
		C769.33,59.74,765.13,55.81,763.55,57.37z"/>
	<path class="st0" d="M268.28,88.88c-30.76-4.78-161.64-9.24-148.72,46.52c0.03,0.13,0.5,0.67,0.59,0.36
		c14.31-50.32,111.47-42.29,150.82-42.29C273.84,93.46,269.83,89.12,268.28,88.88z"/>
	<path class="st0" d="M308.68,90.09c-5.48-2.1-7.49-2.02-13.19-0.42c-2.64,0.74,2.07,4.67,2.94,4.99c5.38,1.92,8.83,3.87,14.17,2.09
		C316.1,95.56,309.89,90.55,308.68,90.09z"/>
	<g>
		<path class="st0" d="M581.32,39.77c1.23,0.6,2.23,1.3,3.4,1.95C590.46,44.93,582.29,40.1,581.32,39.77z"/>
		<path class="st0" d="M581.32,39.77c-4.26-2.07-8.95-3.86-13.22-1.57c-4.43,2.37,2.4,8.8,4.8,9.95c5.94,2.87,7.83,2.86,14.3,1.59
			C592.47,48.71,583.01,40.34,581.32,39.77z"/>
	</g>
</g>
</svg>
