<?xml version="1.0" encoding="utf-8"?>
<!-- Generator: Adobe Illustrator 24.3.0, SVG Export Plug-In . SVG Version: 6.00 Build 0)  -->
<svg version="1.1" id="Layer_1" xmlns="http://www.w3.org/2000/svg" xmlns:xlink="http://www.w3.org/1999/xlink" x="0px" y="0px"
	 viewBox="0 0 1080 1080" style="enable-background:new 0 0 1080 1080;" xml:space="preserve">
<g>
	<g>
		<path d="M381,601.47c1.55,0.77,2.31,2.31,3.86,3.09C384.86,603.01,384.09,599.94,381,601.47z"/>
		<path d="M386.4,599.16c1.53-2.31,2.31-5.4,3.08-7.71C386.4,593.76,381.78,595.3,386.4,599.16z"/>
		<path d="M387.93,708.65c-0.76-2.32-2.31-3.86-3.84-6.17C384.86,705.57,384.09,709.42,387.93,708.65z"/>
		<path d="M388.72,551.36c-2.31-1.54-4.62-3.09-7.72-4.63C381.78,552.13,384.09,551.36,388.72,551.36z"/>
		<path d="M373.29,532.08c2.31-2.31,5.39-3.09,7.7-4.63C374.84,526.68,374.84,525.92,373.29,532.08z"/>
		<path d="M385.62,533.62c0.78,1.55,0,3.86,0,6.95c1.55-1.55,3.86-3.09,5.41-3.86C388.72,535.17,387.17,533.62,385.62,533.62z"/>
		<path d="M380.23,478.88c0,1.54,0.76,3.08,1.55,5.39C382.54,481.96,383.31,478.88,380.23,478.88z"/>
		<path d="M381.78,543.64c0-3.08,0.76-6.94,1.53-10.02h-0.76C377.92,536.71,380.23,539.79,381.78,543.64z"/>
		<path d="M379.47,241.41c-2.31,1.54-4.62,3.09-6.17,4.63C374.84,246.03,381,245.26,379.47,241.41z"/>
		<path d="M370.22,471.17v4.62C371.75,475.03,373.29,472.71,370.22,471.17z"/>
		<path d="M387.17,512.81c0,3.85-0.76,7.71-0.76,12.33c3.86-3.09,3.08-5.4,2.31-9.25c0-2.31-1.55-2.31-1.55-3.86
			c0.76-1.54,3.1-3.85,3.86-5.4c-3.1-0.77-6.17,0-7.72,2.31C384.09,510.5,385.62,511.27,387.17,512.81z"/>
		<path d="M383.31,533.62c0.78,0,1.55-0.76,2.31,0c0-1.54-0.76-2.31-1.53-3.85C384.09,531.31,383.31,532.86,383.31,533.62z"/>
		<path d="M371.75,667.78c-1.53,1.54-3.08,3.09-4.62,5.4C368.67,673.18,374.06,670.87,371.75,667.78z"/>
		<path d="M366.36,738.71c-2.31-0.76-4.63-1.54-6.17-3.08C360.95,737.95,363.28,739.49,366.36,738.71z"/>
		<path d="M357.11,749.51c1.53-1.54,3.08-2.31,3.84-3.09C360.18,745.65,356.32,745.65,357.11,749.51z"/>
		<path d="M374.06,611.5l-3.84,3.85C372.53,615.35,374.84,613.81,374.06,611.5z"/>
		<path d="M377.92,799.63l2.31,1.54c0-1.54,0-3.85-0.76-5.4C379.47,797.32,378.68,798.08,377.92,799.63z"/>
		<path d="M377.15,517.43c-0.78,0-0.78,0-1.55,0l0.76,0.77h0.78V517.43z"/>
		<path d="M367.9,562.15c-1.55,0.77-3.1,0.77-3.86,2.31c-0.76-1.54-1.55-3.09-1.55-4.63l-2.31,7.71c0.76,0,0.76-0.77,1.55-0.77
			c2.31-0.77,4.63-2.31,6.17-3.85V562.15z"/>
		<path d="M368.67,685.52c-1.55,0-3.08,0.77-4.63,1.54C364.81,687.83,368.67,689.37,368.67,685.52z"/>
		<path d="M371.75,491.22l2.31,6.16c1.55,0.77,3.09,0,3.86,0C377.15,494.3,374.84,491.99,371.75,491.22z"/>
		<path d="M377.15,510.5v6.94c0.76-0.77,2.31-0.77,3.08-0.77C379.47,514.35,378.68,512.81,377.15,510.5z"/>
		<path d="M370.98,574.49c-3.08-3.09-6.17-5.4-9.25-7.71l9.25,11.56c-6.94,0-10.03,1.55-13.87,7.71c3.08-0.77,8.49-0.77,11.56-2.31
			C372.53,581.43,370.98,579.11,370.98,574.49z"/>
		<path d="M377.92,522.83c-0.76-1.55-0.76-3.09-1.55-4.63c-5.39,0-10.78-1.55-10.78,4.63c0,2.31,1.53,3.85,2.31,6.16
			c0.76,2.31-0.78,4.62-0.78,6.95c1.55-3.09,1.55-6.95,3.09-10.02C372.53,521.28,371.75,522.83,377.92,522.83z"/>
		<path d="M345.54,741.03l5.39-0.76C348.62,740.26,346.31,737.95,345.54,741.03z"/>
		<path d="M368.67,777.27l1.55-1.55v-0.76C369.43,775.72,369.43,776.5,368.67,777.27z"/>
		<path d="M360.95,773.41c2.33,1.55,3.86,3.86,6.17,5.4c0.78-0.77,0.78-1.54,1.55-1.54C366.36,773.41,365.59,771.87,360.95,773.41z"
			/>
		<path d="M357.87,781.12c0-3.09-1.55-5.4-3.86-7.71C354.01,777.27,352.48,781.9,357.87,781.12z"/>
		<path d="M347.07,778.04c0.78-1.54,2.31-3.85,3.86-5.39l-3.08-2.32C347.07,773.41,347.07,775.72,347.07,778.04z"/>
		<path d="M354.79,770.32l3.08-4.62C354.79,765.7,354.01,768.01,354.79,770.32z"/>
		<path d="M381.78,657.76c-1.55,1.55-3.09,2.31-4.63,3.09C379.47,661.62,381.78,660.84,381.78,657.76z"/>
		<path d="M370.22,775.72c3.08,6.17,2.31,5.4-3.09,10.8c7.72-3.85,9.25-6.17,5.41-13.87C371.75,773.41,370.98,774.19,370.22,775.72z
			"/>
		<path d="M377.15,698.63c-0.78-2.32-0.78-4.63-1.55-6.95C374.84,693.99,374.84,696.31,377.15,698.63z"/>
		<path d="M371.75,707.88c1.55-0.77,2.31-2.31,3.1-3.09C374.06,704.79,370.98,704.79,371.75,707.88z"/>
		<path d="M377.15,603.79l-6.17-2.31C372.53,603.01,374.84,606.87,377.15,603.79z"/>
		<path d="M364.04,513.58l-4.62,4.62C360.95,518.21,366.36,516.66,364.04,513.58z"/>
		<path d="M367.9,273.02v4.63C369.43,276.87,370.98,274.56,367.9,273.02z"/>
		<path d="M361.73,555.98l4.63-2.31l-2.31-9.25c-5.41-2.31-6.94,3.09-9.25,6.94C357.87,550.59,360.95,552.9,361.73,555.98z"/>
		<path d="M369.43,546.73c-0.76,2.31-2.31,4.63-3.08,6.94c0,0,1.55,1.55,1.55,2.31C368.67,552.9,369.43,549.82,369.43,546.73z"/>
		<path d="M364.04,245.26c2.31,0.77,3.86,1.55,5.39,3.09v-6.16c-3.08-0.77-5.39-1.55-8.49-1.55c1.55,0.77,3.86,2.31,6.17,3.09
			C366.36,244.49,364.81,244.49,364.04,245.26z"/>
		<path d="M366.36,510.5c-2.31-0.77-3.86-2.31-6.17-3.09c0.76,1.54,1.55,3.09,1.55,4.62C363.28,512.03,364.81,511.27,366.36,510.5z"
			/>
		<path d="M343.23,613.81c0-0.77,0.76-1.54,0.76-2.31C343.23,611.5,343.23,613.04,343.23,613.81z"/>
		<path d="M348.62,540.57c2.31-3.09,2.31-3.09,2.31-7.71c0.76,3.85,0.76,6.94,4.62,8.48l2.31-9.25c-7.7-1.54-6.17-0.77-10.02,5.4
			c-3.09,3.85-5.41,6.94-6.94,11.56C343.23,544.42,344.76,543.64,348.62,540.57z"/>
		<path d="M357.87,509.72c-1.55,0.77-3.08,0.77-4.62,1.55c1.55,1.54,3.08,3.08,4.62,3.85V509.72z"/>
		<path d="M354.01,683.21c-3.08,3.85-6.16,3.85-10.02,3.09c3.08,0.76,6.17,1.54,9.25,1.54
			C354.01,686.29,354.79,684.74,354.01,683.21z"/>
		<path d="M347.07,478.88l-2.31-5.4C344.76,475.8,344,478.88,347.07,478.88z"/>
		<path d="M351.7,518.21c-0.76,0.76-1.53,2.31-1.53,3.85c0.76,1.54,0.76,3.09,1.53,4.63C351.7,523.6,353.25,520.52,351.7,518.21z"/>
		<path d="M362.5,722.53c-1.55,1.54-3.08,2.31-5.39,3.85c2.31,1.55,0.76,0,0.76,0c0.76,0.77,3.08,0.77,3.86,0.77
			C362.5,725.61,362.5,724.07,362.5,722.53z"/>
		<polygon points="218.14,404.3 216.59,408.92 220.45,405.07 219.69,401.21 		"/>
		<polygon points="223.53,398.13 225.84,403.53 232.78,401.21 228.15,398.13 228.15,394.27 226.62,394.27 		"/>
		<polygon points="219.69,375.78 217.37,369.6 217.37,378.09 215.04,380.4 214.28,387.34 217.37,381.94 		"/>
		<polygon points="219.69,392.74 216.59,395.81 218.9,399.67 		"/>
		<polygon points="201.17,385.02 201.95,388.88 208.11,391.19 205.79,386.56 		"/>
		<polygon points="208.89,400.45 210.42,401.21 210.42,397.36 209.65,396.59 		"/>
		<polygon points="225.08,394.27 226.62,394.27 227.39,393.5 		"/>
		<polygon points="218.9,392.74 218.14,385.8 214.28,391.19 		"/>
		<polygon points="234.33,371.91 228.94,369.6 222.76,371.14 222,375.78 225.08,380.4 229.7,375.78 		"/>
		<polygon points="202.72,400.45 205.79,400.45 201.95,393.5 		"/>
		<polygon points="228.15,392.74 227.39,393.5 228.15,393.5 		"/>
		<polygon points="230.47,392.74 228.15,393.5 228.15,394.27 229.7,394.27 235.09,395.05 240.5,395.05 242.03,389.65 236.64,391.19 
					"/>
		<polygon points="218.14,680.33 217.37,679.55 215.04,684.95 216.59,685.72 		"/>
		<polygon points="213.51,673.39 211.97,677.24 209.65,681.87 213.51,681.1 		"/>
		<polygon points="214.28,688.81 208.89,686.5 208.89,691.12 201.95,694.98 208.89,693.44 		"/>
		<rect x="203.48" y="702.69" width="3.1" height="1.54"/>
		<polygon points="245.89,695.75 240.5,699.6 244.36,703.46 247.44,707.31 245.12,701.91 		"/>
		<polygon points="238.19,378.85 235.09,378.09 230.47,378.85 225.08,380.4 222.76,379.63 218.14,385.8 225.08,384.25 
			232.01,381.94 229.7,388.11 233.56,385.02 238.95,382.71 243.58,384.25 235.09,385.8 240.5,387.34 246.67,381.17 235.87,375 		"/>
		<polygon points="222.76,685.72 222,685.72 220.45,690.35 222,691.12 		"/>
		<polygon points="208.11,705 208.89,713.48 213.51,712.71 210.42,708.86 		"/>
		<polygon points="242.81,689.58 232.01,698.83 232.78,700.37 238.95,695.75 244.36,691.89 		"/>
		<polygon points="234.33,691.89 237.4,688.81 236.64,684.19 230.47,681.1 236.64,678.01 230.47,672.61 227.39,674.16 229.7,679.55 
			232.01,685.72 231.25,689.58 		"/>
		<polygon points="207.34,699.6 211.97,701.15 215.83,694.98 211.97,697.29 		"/>
		<polygon points="221.22,708.86 216.59,711.94 222,715.02 227.39,715.02 228.94,711.94 230.47,703.46 225.84,706.55 		"/>
		<path d="M411.08,523.6l-0.78-0.76c-1.53,1.54-3.08,3.09-4.62,4.62C407.22,525.92,409.53,525.14,411.08,523.6z"/>
		<path d="M350.17,755.68c-0.78,0.77-2.31,2.32-3.09,3.86C348.62,759.54,351.7,758.76,350.17,755.68z"/>
		<path d="M394.11,566.78c0.78-2.31,0-3.09-2.31-3.09c-0.76,0.77-0.76,0.77-0.76,1.55C391.79,565.24,393.34,566.78,394.11,566.78z"
			/>
		<path d="M350.93,751.83c-0.76-1.54-0.76-4.63-0.76-6.17l-2.31,6.95c2.31,0.76,4.63,2.31,6.94,3.08
			C355.56,752.6,352.48,754.14,350.93,751.83z"/>
		<path d="M373.29,564.47c2.31,1.54,3.86,3.09,6.17,5.4c0-4.63,1.53-9.25,2.31-13.88C378.68,559.07,376.37,562.15,373.29,564.47z"/>
		<path d="M380.23,603.01l-2.31-3.85C377.92,599.94,377.15,603.01,380.23,603.01z"/>
		<path d="M372.53,746.43c-3.09,1.55-10.03,2.31-6.94,6.94l3.08-5.39c1.55,1.54,3.08,1.54,4.62,3.08
			C372.53,749.51,372.53,747.97,372.53,746.43z"/>
		<path d="M357.11,690.92c0,0.76,0.76,0.76,0.76,1.54c0-0.77,0.76-0.77,0.76-1.54H357.11z"/>
		<path d="M358.64,558.29c-0.76-0.76-2.31-2.31-3.08-3.08c-0.76,2.31,0.77,3.08,3.08,3.85V558.29z"/>
		<path d="M349.39,628.46c1.55-0.77,3.1-1.54,3.86-3.09C353.25,623.83,348.62,625.37,349.39,628.46z"/>
		<path d="M357.87,692.46l-4.62,6.17l6.17-2.32C358.64,695.54,358.64,693.99,357.87,692.46z"/>
		<path d="M356.32,656.99c-0.77-1.54-2.31-3.08-3.08-3.85C352.48,653.91,352.48,657.76,356.32,656.99z"/>
		<path d="M404.14,507.41c-1.55-2.31-3.09-3.85-4.63-5.4C399.51,504.32,401.83,506.64,404.14,507.41z"/>
		<path d="M420.33,511.27c-1.55-0.77-3.08,1.54-0.76,3.85C419.56,513.58,420.33,512.03,420.33,511.27z"/>
		<path d="M392.58,509.72c0,1.55,0,3.86,0.76,4.62C394.11,514.35,395.65,511.27,392.58,509.72z"/>
		<path d="M398.73,518.21l6.94,3.85C405.67,522.06,401.83,514.35,398.73,518.21z"/>
		<path d="M366.36,675.49c-5.41,2.31-10.8,4.62-13.87-1.54v4.63C356.32,684.74,361.73,678.58,366.36,675.49z"/>
		<path d="M409.53,495.85l3.1,3.08C412.63,498.16,412.63,495.07,409.53,495.85z"/>
		<path d="M401.04,535.94c-1.53-1.55-3.84-2.32-5.39-3.09l0.76,5.4C397.97,537.48,399.51,536.71,401.04,535.94z"/>
		<path d="M396.42,502.78c-0.76,0-3.84,0.77-1.53,3.85C395.65,505.1,396.42,504.32,396.42,502.78z"/>
		<path d="M396.42,580.65c0,0,0.78,0,0.78-0.76l-0.78-0.77C396.42,579.89,396.42,579.89,396.42,580.65z"/>
		<path d="M401.83,593.76c-0.78,1.54-2.31,2.31-2.31,3.85C401.04,597.62,403.36,596.08,401.83,593.76z"/>
		<path d="M404.9,589.14l-4.63-6.94C400.28,585.29,400.28,591.45,404.9,589.14z"/>
		<path d="M395.65,532.86c0.76-3.09,3.08-4.62,6.17-6.17C397.97,528.23,393.34,528.23,395.65,532.86z"/>
		<path d="M416.47,535.94c2.31-0.77,3.86-2.32,6.17-3.09c-6.94-3.86-7.7-0.77-13.11,3.85c3.86,0,6.94-1.54,6.94,3.86
			c1.55,0,2.31-0.77,3.86-1.55C418.78,538.26,418.01,536.71,416.47,535.94z"/>
		<path d="M695.59,489.67c1.53-0.76,2.31-2.31,3.08-3.08c-1.55,0-3.08,0.77-4.62,1.54C694.81,488.14,695.59,488.91,695.59,489.67z"
			/>
		<path d="M689.42,478.88c-1.55,0.76-3.86,0.76-6.17,1.54C685.56,481.96,687.87,481.2,689.42,478.88z"/>
		<path d="M678.62,501.25c3.08-2.32,6.17-3.86,10.03-3.09c0-1.55-0.78-2.31-1.55-3.86L678.62,501.25z"/>
		<path d="M688.65,373.25c2.31,0,4.63-1.54,6.16-3.08c-4.63-0.77-4.63-3.86-7.7-6.17c0.76,3.09,1.55,6.17,3.08,8.49l-7.7-2.31
			C684.79,374.79,684.01,374.02,688.65,373.25z"/>
		<path d="M684.01,347.04c1.55,0.77,3.86,1.54,5.41,1.54C688.65,347.04,685.56,344.72,684.01,347.04z"/>
		<path d="M708.7,640.8c1.53-2.31,3.08-3.85,4.63-5.4C711.78,636.95,706.37,636.95,708.7,640.8z"/>
		<polygon points="853.06,389.65 849.96,392.73 852.27,396.59 		"/>
		<path d="M703.29,346.26c-1.55,2.31-0.76,4.63,2.31,4.63L703.29,346.26z"/>
		<polygon points="851.51,401.22 849.96,405.84 853.82,401.99 853.06,398.13 		"/>
		<path d="M694.81,360.91c0.78,2.32,0.78,4.63,0.78,6.95c1.53-8.49-0.78-10.02-7.72-3.86C690.18,363.23,692.49,361.68,694.81,360.91
			z"/>
		<path d="M702.53,511.27c2.31,0.76,4.63,2.31,6.94,3.85C708.7,511.27,706.37,510.5,702.53,511.27z"/>
		<path d="M656.26,539.02c2.31-1.54,3.86-3.08,6.17-3.85l-6.94-4.63C655.49,532.86,656.26,535.94,656.26,539.02z"/>
		<path d="M576.85,544.42c1.53,0.77,3.08,1.54,3.84,2.31h0.78C581.47,545.96,579.93,545.96,576.85,544.42z"/>
		<path d="M584.55,550.59c1.55,2.31,3.86,3.85,6.94,3.85c-3.08-3.09-6.17-5.4-10.02-6.94L584.55,550.59z"/>
		<path d="M562.97,552.13c3.84,6.16,6.94,6.94,13.09,10.02c1.55-2.31,2.31-4.62,3.1-6.94C573.75,559.07,568.36,554.44,562.97,552.13
			z"/>
		<path d="M565.29,545.19c-0.78,2.31-0.78,3.85-1.55,5.4C565.29,549.04,566.82,547.51,565.29,545.19z"/>
		<path d="M593.8,539.02c-3.08,3.86-3.84,5.4-9.25,6.94c3.09,2.31,6.17,4.63,10.03,6.17v-2.31l-3.1-5.4c0.78,0,2.31,0,3.86,0.77
			C594.59,542.88,594.59,540.57,593.8,539.02z"/>
		<path d="M599.21,551.36c3.08,0.77,6.16,0.77,9.25-1.54C604.6,547.51,601.52,548.27,599.21,551.36z"/>
		<path d="M674.76,549.04v-6.16c-0.76,0-0.76,0-0.76,0C673.99,545.19,674.76,547.51,674.76,549.04z"/>
		<polygon points="856.9,395.04 859.21,400.44 866.15,398.13 861.52,395.04 861.52,391.19 859.99,391.19 		"/>
		<path d="M643.15,522.83l6.17,4.62C648.56,525.14,646.24,522.83,643.15,522.83z"/>
		<path d="M626.19,521.28c1.53,1.55,3.08,3.09,5.39,4.63c-1.55-2.32-3.08-3.86-3.86-5.4C626.96,520.52,626.96,521.28,626.19,521.28z
			"/>
		<polygon points="841.48,701.91 842.26,710.4 846.88,709.62 843.79,705.77 		"/>
		<rect x="836.85" y="699.6" width="3.1" height="1.54"/>
		<path d="M559.88,552.9c2.31-0.77,3.1-1.55,3.86-2.31C562.19,551.36,560.66,552.13,559.88,552.9z"/>
		<polygon points="847.65,685.73 842.26,683.41 842.26,688.04 835.32,691.89 842.26,690.35 		"/>
		<polygon points="846.88,670.3 845.34,674.15 843.02,678.79 846.88,678.02 		"/>
		<polygon points="851.51,677.24 850.74,676.47 848.41,681.87 849.96,682.64 		"/>
		<polygon points="840.71,696.52 845.34,698.06 849.19,691.89 845.34,694.2 		"/>
		<polygon points="879.26,692.66 873.87,696.52 877.73,700.38 880.81,704.23 878.49,698.83 		"/>
		<polygon points="854.59,705.77 849.96,708.85 855.37,711.94 860.76,711.94 862.31,708.85 863.84,700.38 859.21,703.46 		"/>
		<path d="M539.44,33.23C259.56,33.23,32.67,260.12,32.67,540s226.89,506.77,506.77,506.77S1046.21,819.88,1046.21,540
			S819.33,33.23,539.44,33.23z M272.87,697.29l-0.76,6.17l-3.08,10.79l-2.31,5.4l-6.17,9.25l-3.86,3.86l-4.62,3.85l-5.39,2.31
			l-4.64,2.31l-6.15,1.55l-5.41,1.54h-5.39l-6.17,0.77l-10.8-1.55l-10.78-4.63l-4.64-3.85l-3.84-3.85l-3.86-4.63l-6.17-9.25
			l-2.31-4.63l-2.31-5.4l-3.08-5.4v-0.76l0.76-6.17l0.78-5.4l0.76-6.16l6.94-16.2l7.7-9.25l4.62-3.85l4.64-3.09l5.39-3.09l5.39-1.54
			l5.41-2.31l6.17-0.77h10.78l5.41,1.54l10.8,4.63l4.63,3.08l3.84,3.09l4.62,4.63l3.86,4.62l3.1,4.62l4.62,10.8l0.76,5.4l0.76,6.16
			V697.29z M272.11,395.81l-0.76,5.4l-4.62,10.8l-2.33,4.62l-3.84,4.63l-4.63,3.86l-3.86,3.85l-5.39,3.09l-4.64,2.31l-5.39,1.54
			l-6.17,0.77l-5.39,0.77h-6.17l-5.39-0.77l-5.41-1.54l-6.16-1.55l-4.62-2.31l-5.41-3.09l-4.63-3.85l-3.08-4.63l-3.86-4.62
			l-4.62-10.8l-2.31-4.62l-2.31-5.4v-0.77l0.76-5.39l0.78-6.17l0.76-5.4l1.55-5.4l4.62-10.79l3.08-4.63l3.86-3.86l9.25-7.71
			l4.63-2.31l10.8-4.63l5.39-1.54l5.41-0.77h2.31l5.39,0.77l6.17,1.54l10.8,4.63l4.63,3.09l4.62,3.85l3.84,3.86l3.86,4.63l3.1,4.62
			l4.62,10.8l1.53,5.4v6.16l0.78,5.4L272.11,395.81z M760.36,312.34c0,3.09-1.55,6.17-0.78,10.02c0.78,13.11,0.78,26.21,0.78,40.09
			c0,3.09-0.78,5.4-0.78,8.48c-0.76,3.86,0,6.95,0,10.8c0,4.63-0.76,5.4-0.76,10.03c0.76,3.09,0.76,6.94,0.76,10.02
			c0,6.16-2.31,12.34-2.31,18.5c0,6.95,0,12.34,0.78,18.51c0,7.71-1.55,13.88-1.55,20.81c0.76,6.95,2.31,11.57,1.55,18.51v19.27
			c0.76,6.94-0.78,13.88,0,21.59c0.76,11.57,0,23.14,0,35.47c-0.78,13.11,2.31,26.98,1.53,40.09c-0.76,6.94-1.53,13.88-1.53,20.05
			c0,6.94,1.53,13.1,1.53,20.05c0,6.16-0.76,13.1-1.53,19.27c0,3.08-0.78,6.16-0.78,9.25c0.78,5.4,0.78,6.16,0.78,11.56
			c0,2.31,0.76,5.4,0.76,8.49c0,3.09-1.55,6.16-0.76,9.25c0,4.62,0.76,4.62,0,9.25l-0.78,7.71c3.1,13.11,1.55,26.22,0.78,39.32
			c0,2.31,0,5.4,0.76,7.71c0.76,3.86,0,4.62,0,9.25c-0.76,6.17,0.76,12.34,0,19.28c0,2.31-0.76,6.94-0.76,10.02
			c0,2.32,2.31,4.63,2.31,7.71c0.76,6.17-0.78,14.65-0.78,21.6c0,2.31,0,5.39-0.76,8.48c-0.76,4.62-1.55,4.62-3.86,9.25
			c-2.31,5.4-2.31,12.34-6.94,16.2c-9.25,7.71-20.81,15.42-33.92,16.19c-13.87,1.55-25.44-1.54-36.23-9.25
			c-9.25-7.71-17.74-18.5-17.74-30.84c-0.76-6.95-2.31-12.34-3.09-18.51c0-6.94,0.78-12.34,1.55-19.27c0-3.86-1.55-6.17-1.55-10.03
			c0-3.09,0.78-6.17,0.78-9.25c0-3.09,0-6.17,0.76-9.26c0-4.63-1.55-6.16-1.55-10.79c0-2.31,1.55-4.62,1.55-6.94
			c0-3.86-1.55-6.95-1.55-10.02c0-3.86,0.78-6.17,0.78-10.02c0.76-3.09-0.78-4.63-0.78-8.49c0-2.31,1.55-4.62,1.55-6.94
			c0.78-3.85-1.55-6.94-2.31-10.8c0-5.39,1.55-12.33,2.31-17.73v-10.02c0-2.31-1.55-5.4-1.55-8.49c0-2.31,2.33-4.62,3.09-7.71
			c0-3.09,0-6.94-0.76-10.02c-0.78-7.71-3.86-12.34-6.17-19.27c-0.78-2.31-1.55-5.4-3.09-7.71c-2.31-4.62-3.84-4.62-7.7-7.71
			c-3.86-3.85-8.48-7.71-13.11-11.56c-5.39-3.09-14.64-3.85-20.81-3.85c-13.11,1.54-25.46,2.31-38.55,0.76
			c-13.89-0.76-26.22,1.55-40.1,0c-6.17-0.76-13.11-1.54-19.28-1.54s-12.33,2.31-18.5,1.54c-7.72-1.54-12.35-2.31-20.05,0
			c-6.17,1.55-11.56-0.76-17.74,2.31c-3.86,2.31-5.39,1.55-9.25,3.09c-2.31,1.54-3.08,3.09-5.39,5.4c-2.33,2.31-6.96,3.09-8.49,5.4
			c-1.55,1.54-2.31,4.63-3.86,6.94c-3.08,6.16-6.94,11.56-7.7,18.5c0,3.09-0.78,6.17-0.78,9.26c0,3.08,1.55,5.39,1.55,8.48
			c0.76,3.09-0.76,6.17-1.55,9.25c0,3.86,0.78,6.95,0.78,10.8c0,6.17-0.78,13.11,0,19.27c0.76,7.71,0,12.34,0,19.27
			c-0.78,6.95,1.53,13.88,1.53,20.05c-0.76,6.94-2.31,12.34-0.76,19.28c0.76,6.94,0,12.33,0.76,18.5c0,11.56,1.55,25.45-0.76,37.01
			c-1.55,6.16,0,13.11-1.55,19.27c-0.76,6.17-3.84,10.8-6.15,16.96c-2.33,6.17-3.1,10.02-9.27,13.88
			c-6.15,4.62-10.78,8.48-18.5,10.02c-12.33,3.08-27.75,2.31-38.55-3.86c-6.17-3.09-10.03-6.94-13.88-12.33
			c-3.09-4.63-6.94-9.25-8.48-13.88c-0.76-3.09,0-5.4-1.55-8.48c-0.76-1.54-3.08-3.85-3.08-6.16c-1.55-5.4-0.76-11.57-2.31-17.74
			c3.08-5.4,1.55-12.34,0.77-17.73c0-4.63,0.78-10.79,0.78-16.19c-0.78-3.86,0.76-5.4,1.53-8.49c0-3.09-1.53-5.4-1.53-8.48
			c0-3.09,1.53-5.4,1.53-9.26c0-2.31-1.53-4.62-1.53-7.71c0-6.16,1.53-10.79,0.76-16.96c-0.76-6.16,0-13.1,0.76-18.5
			c1.55-12.34,2.31-26.99,0.78-39.32c-0.78-3.86-1.55-6.17-0.78-10.02c0-3.86,1.55-6.94,0.78-10.8c0-2.31-1.55-4.63-1.55-7.71
			c-0.76-3.08,0.76-6.94,0.76-10.02c0-6.94,0-12.34,0.78-19.27c0.76-6.16,0-13.87-0.78-20.05c-1.53-12.34,0.78-25.44,0-37.77
			c-0.76-5.4,0-11.57,0-16.96c-0.76-5.4-2.31-11.57-2.31-16.97c0-2.31,1.55-5.39,1.55-7.7c0-3.86-0.76-4.63-0.76-9.26
			c0.76-5.4-0.78-10.79,0-16.96c0-6.16,2.31-12.34,2.31-19.27c0-3.09-2.31-6.17-2.31-9.25c0-2.31,2.31-4.62,2.31-7.71
			c0-3.09-2.31-6.17-2.31-9.25c0-3.86,2.31-6.95,2.31-10.8v-18.51c0-6.94,1.53-15.41,0-21.59c0-2.31-1.55-4.63-1.55-6.94
			c-0.76-3.85,0.76-7.71,1.55-11.56c0-6.17-2.31-12.34-2.31-18.51c0.76-6.94,0.76-13.87,1.53-20.81c0-13.11-3.08-25.45-0.76-37.78
			c0.76-6.17-0.76-13.11-0.76-19.27c0.76-6.94,2.31-13.11,2.31-20.05c0-13.87,3.84-27.76,15.4-37.01c1.55-1.54,3.86-1.54,6.17-3.09
			c2.31-1.54,5.41-5.4,8.49-6.16c1.55-0.77,3.86,0,5.39,0c1.55,0,3.09-2.31,4.62-2.31c2.33-0.77,6.96-0.77,9.27,0
			c10.02,0.76,26.2,3.85,34.69,11.56c9.25,9.25,11.56,20.05,15.42,31.61c0.76,3.09,2.31,6.17,2.31,9.25c0,3.09-2.31,5.4-2.31,8.49
			c0,2.31,1.55,4.63,1.55,7.71c0,3.08-0.78,6.94-0.78,10.79c-0.76,13.11,1.55,26.98,0.78,40.1c0,13.11-1.55,26.21-1.55,39.32
			c0,6.94,0.76,13.11,0.76,20.05c-0.76,6.94-2.31,13.87-1.53,20.05c0,3.85,0.76,6.16,0,9.25c0,3.09-0.78,6.17,0,9.25
			c1.53,6.17,2.31,13.11,2.31,20.05c0.77,11.57-0.78,24.67,6.16,35.47c7.72,11.56,14.66,16.96,29.3,18.5c3.09,0,6.17,0.77,8.49,1.55
			c3.86,0.76,5.41,0,8.49,0c3.08,0,6.17,0.76,8.48,0.76c4.63,0,4.63,0.77,9.25,2.32c6.17,1.54,12.33-2.32,17.74-1.55
			c4.62,0.77,5.39,2.31,10.02,1.55c3.86,0,6.17-0.77,9.25-0.77c6.94,0,13.11,0.77,19.28,1.54c6.17,0,12.35-2.31,18.5-2.31
			c13.11,0.77,26.98-0.77,40.09-0.77c12.35-0.76,25.44-3.08,34.71-11.56c4.63-4.63,7.7-10.79,11.56-16.96
			c1.53-3.85,1.53-5.4,2.31-9.25c0.76-2.31,2.31-5.4,2.31-7.71c0.76-3.09-0.78-6.17-0.78-8.49v-10.79
			c0.78-6.17,1.55-13.11,1.55-19.27c0.78-6.17,0.78-12.34-0.76-18.51c-0.78-6.16,0.76-10.8,0-16.96
			c-1.55-13.11,1.55-27.76,1.55-40.86c0-6.17-1.55-11.57-1.55-18.51c0.76-6.94,0.76-12.34,0-19.27c-0.78-6.17,0.76-12.34,0.76-18.51
			c-0.76-6.94-0.76-13.1-0.76-20.05c0.76-6.94-0.78-10.79,2.31-17.73c0.76-3.09,0.76-6.17,2.31-9.26c1.55-3.08,3.86-6.16,6.17-8.48
			c7.7-12.34,16.19-18.51,30.06-20.82c13.87-2.31,24.67-0.76,37.02,6.17c12.33,6.94,16.95,20.05,21.58,32.39
			c4.63,10.79,3.1,26.98,3.86,39.32c0,6.16-1.55,12.34-2.31,18.5C758.81,306.18,759.57,308.49,760.36,312.34z M804.47,390.42
			l0.76-5.39l0.78-6.17l0.76-5.4l1.55-5.4l4.62-10.79l3.08-4.62l3.86-3.86l9.25-7.71l4.63-2.31l10.8-4.62l5.39-1.54l5.41-0.77h2.31
			l5.39,0.77l6.17,1.54l10.8,4.62l4.63,3.09l4.62,3.85l3.84,3.86l3.86,4.63l3.1,4.62l4.62,10.8l1.53,5.4v6.16l0.78,5.4l-1.55,6.16
			l-0.76,5.4l-4.62,10.8l-2.33,4.63l-3.84,4.62l-4.62,3.86l-3.86,3.85l-5.39,3.09l-4.64,2.31l-5.39,1.54l-6.17,0.77l-5.39,0.77
			h-6.17l-5.39-0.77l-5.41-1.54l-6.16-1.55l-4.62-2.31l-5.41-3.09l-4.63-3.85l-3.08-4.62l-3.86-4.63l-4.62-10.8l-2.31-4.63
			l-2.31-5.4V390.42z M907.02,706.54l-3.08,10.79l-2.31,5.4l-6.17,9.25l-3.86,3.86l-4.63,3.85l-5.39,2.31l-4.64,2.31l-6.16,1.55
			l-5.41,1.54h-5.39l-6.17,0.77l-10.8-1.55l-10.78-4.62l-4.64-3.85l-3.84-3.85l-3.86-4.63l-6.17-9.25l-2.31-4.62l-2.31-5.4
			l-3.08-5.4v-0.76l0.76-6.17l0.78-5.4l0.76-6.16l6.94-16.2l7.7-9.25l4.62-3.85l4.64-3.09l5.39-3.09l5.39-1.54l5.41-2.31l6.17-0.77
			h10.78l5.41,1.54l10.8,4.63l4.62,3.08l3.84,3.09l4.62,4.62l3.86,4.63l3.09,4.62l4.62,10.8l0.76,5.4l0.76,6.16v5.4L907.02,706.54z"
			/>
		<polygon points="870.77,685.73 870.01,681.1 863.84,678.02 870.01,674.93 863.84,669.53 860.76,671.08 863.07,676.47 
			865.38,682.64 864.62,686.49 867.7,688.8 		"/>
		<polygon points="876.18,686.49 865.38,695.75 866.15,697.29 872.32,692.66 877.73,688.8 		"/>
		<polygon points="867.7,368.83 862.31,366.52 856.13,368.06 855.37,372.69 858.45,377.32 863.07,372.69 		"/>
		<polygon points="853.06,372.69 850.74,366.52 850.74,375 848.41,377.32 847.65,384.25 850.74,378.86 		"/>
		<polygon points="858.45,391.19 859.99,391.19 860.76,390.42 		"/>
		<polygon points="861.52,389.65 860.76,390.42 861.52,390.42 		"/>
		<polygon points="856.13,682.64 855.37,682.64 853.82,687.26 855.37,688.04 		"/>
		<polygon points="863.84,389.65 861.52,390.42 861.52,391.19 863.07,391.19 868.46,391.97 873.87,391.97 875.4,386.57 
			870.01,388.1 		"/>
		<path d="M390.26,795.77l-5.41-4.62C384.86,792.68,386.4,798.08,390.26,795.77z"/>
		<polygon points="843.79,394.28 843.02,393.5 842.26,397.36 843.79,398.13 		"/>
		<polygon points="851.51,382.71 847.65,388.1 852.27,389.65 		"/>
		<polygon points="841.48,388.1 839.16,383.48 834.54,381.94 835.32,385.79 		"/>
		<polygon points="836.08,397.36 839.16,397.36 835.32,390.42 		"/>
		<polygon points="865.38,378.86 863.07,385.03 866.93,381.94 872.32,379.63 876.95,381.17 868.46,382.71 873.87,384.25 
			880.04,378.08 869.24,371.92 871.55,375.77 868.46,375 863.84,375.77 858.45,377.32 856.13,376.54 851.51,382.71 858.45,381.17 		
			"/>
		<path d="M461.97,523.6c-1.55,0.77-3.09,0.77-3.86,1.55C458.88,525.92,461.19,526.68,461.97,523.6z"/>
		<path d="M444.23,529.77c1.53,0,3.08,0.77,4.63,1.54C449.62,530.54,448.08,527.46,444.23,529.77z"/>
		<path d="M442.69,522.06c0.76-1.54,1.55-3.85,1.55-5.4C443.45,518.21,440.37,519.75,442.69,522.06z"/>
		<path d="M426.5,524.37c0.76,0,2.31-0.77,3.84-1.54c-0.76-0.77-1.53-2.31-3.08-3.09C426.5,521.28,426.5,522.83,426.5,524.37z"/>
		<path d="M517.47,518.97c0,6.17,0,7.71-3.08,13.11c1.55,0,3.08-0.77,4.63-1.54C516.71,526.68,522.1,520.52,517.47,518.97z"/>
		<path d="M503.6,526.68l-4.63,3.09c2.31,0,3.86,0,6.17,0C504.36,529,503.6,528.23,503.6,526.68z"/>
		<path d="M471.99,562.93l3.08-5.4C473.53,558.29,468.91,559.84,471.99,562.93z"/>
		<path d="M496.66,522.83c-1.55,1.54-3.08,3.85-4.63,4.62C495.11,526.68,497.42,525.14,496.66,522.83z"/>
		<path d="M506.67,527.46v2.31h3.86C508.98,529,508.22,527.46,506.67,527.46z"/>
		<path d="M506.67,529.77c-0.76,0-1.53,0-1.53,0c0,0.77,0.76,1.54,0.76,1.54S505.91,530.54,506.67,529.77z"/>
		<path d="M421.09,550.59c2.31-3.09,3.09-6.17,6.94-6.17c-2.31-0.77-5.39-0.77-8.47-0.77C420.33,545.96,421.09,548.27,421.09,550.59
			z"/>
		<path d="M548.32,536.71c4.62,0,5.39-8.48,10.02-3.09c-0.76-3.85-2.31-6.94-1.53-10.79C554.49,528.23,552.18,532.08,548.32,536.71z
			"/>
		<path d="M391.03,747.2c1.55-1.55,3.08-2.31,4.62-3.09h-6.17C390.26,744.89,390.26,746.43,391.03,747.2z"/>
		<path d="M394.89,607.64c3.08,0,5.39-0.76,8.47-0.76C400.28,606.87,395.65,603.01,394.89,607.64z"/>
		<path d="M394.89,758c-0.78-1.55-1.55-3.09-3.09-4.63C391.79,755.68,392.58,758,394.89,758z"/>
		<path d="M382.54,771.1c2.31,1.55,4.62,2.31,7.72,2.31C388.72,771.1,385.62,769.56,382.54,771.1z"/>
		<path d="M421.87,555.22l3.08,5.4C425.72,558.29,424.19,555.98,421.87,555.22z"/>
		<path d="M383.31,775.72c-0.76-1.54-0.76-3.08-0.76-4.62c-0.76-0.77-1.55-1.54-2.31-1.54C381,771.87,381.78,773.41,383.31,775.72z"
			/>
		<path d="M410.29,552.9c-0.76,5.39,1.55,8.48,6.17,13.88c-3.84-5.4-4.62-6.94-5.39-13.11C410.29,553.67,410.29,552.9,410.29,552.9z
			"/>
		<path d="M470.44,531.31c2.31-3.08,4.63-6.16,6.94-10.02C471.22,524.37,470.44,524.37,470.44,531.31z"/>
		<path d="M408.76,546.73c0.76,1.54,1.53,3.86,1.53,6.17c0.78-0.77,0.78-2.31,1.55-3.09C411.08,548.27,409.53,547.51,408.76,546.73z
			"/>
		<path d="M412.63,569.87c-2.33-2.31-3.86-3.86-6.17-5.4C403.36,569.87,407.98,572.18,412.63,569.87z"/>
		<path d="M403.36,545.19c2.31,0,3.86,0,5.41,1.54c-0.78-2.31-1.55-4.62-3.09-6.94L403.36,545.19z"/>
		<path d="M418.78,579.11c0-1.54,0.78-3.09,0-4.62C418.01,575.26,415.7,577.58,418.78,579.11z"/>
		<path d="M572.22,547.51c0-0.77,0-0.77,0-0.77v-0.77c-0.78,0.77-0.78,0.77-0.78,0.77c-2.31,2.31-1.53,5.4,0.78,7.71V547.51z"/>
		<path d="M535.21,534.39c3.09-2.31,3.86-6.94,0.76-9.25C535.97,525.14,535.97,532.08,535.21,534.39z"/>
		<path d="M551.39,520.52c-3.08,0.76-4.63,2.31-3.84,5.4l6.15-1.55C552.94,523.6,552.18,522.06,551.39,520.52z"/>
		<path d="M567.6,529.77c-2.31,0-3.86,0-6.17,0.77c2.31,1.54,3.86,3.85,5.39,6.16C566.82,534.39,567.6,532.08,567.6,529.77z"/>
		<path d="M576.85,529c-2.31-2.31-3.86-4.63-5.41-6.94C569.91,523.6,572.99,531.31,576.85,529z"/>
		<path d="M487.41,547.51l3.86-6.17c-5.41,0-6.95,0.77-11.58,3.86l7.72-0.77C487.41,545.19,488.17,545.96,487.41,547.51z"/>
		<path d="M552.94,541.33l0.76-0.76c-0.76,0-1.53-0.77-1.53-0.77C552.18,540.57,552.18,540.57,552.94,541.33z"/>
		<path d="M604.6,522.06l-5.39,2.31C602.29,525.14,604.6,525.14,604.6,522.06z"/>
		<path d="M553.71,540.57c1.55,0,3.1,0.76,3.86,0.76c0.76-0.76,0-3.08,0-3.85C556.02,538.26,555.25,539.02,553.71,540.57z"/>
		<path d="M552.94,547.51c2.31,4.62,0,7.71-2.31,11.56c2.31-0.77,4.62-2.31,6.94-3.09c-3.08-5.39-3.08-9.25-4.63-14.65l-5.39,0.77
			C548.32,546.73,551.39,545.19,552.94,547.51z"/>
		<path d="M548.32,530.54c-3.86-3.09-4.62-5.4-6.94-9.26c1.55,4.63,2.31,8.49,3.08,12.34c-0.76-0.76-3.08-0.76-4.63-1.54
			c-2.31,5.4,2.31,8.48,6.94,6.17C546,535.17,543.69,532.08,548.32,530.54z"/>
		<path d="M549.86,567.55c-1.55-0.77-3.86-2.31-6.17-3.09C542.93,566,546.77,570.63,549.86,567.55z"/>
		<path d="M590.72,529l-3.08,5.4C588.41,532.86,593.8,532.86,590.72,529z"/>
		<path d="M507.46,556.75c0,1.54,0,3.86,0.76,5.4c0.76-1.54,2.31-3.09,3.86-4.62C510.53,558.29,508.98,558.29,507.46,556.75z"/>
		<path d="M482.78,552.13c0-0.77,0.77-0.77,2.31-1.54c-0.78,0-0.78,0-0.78-0.77C483.55,550.59,482.78,551.36,482.78,552.13z"/>
		<path d="M511.32,541.33l1.53,1.55c3.09-1.55,9.25-6.17,5.41-9.26c-4.63-3.08-11.58,1.55-14.66,3.09l6.17,2.31
			c0,0-0.78,0-0.78,0.77h0.78c-2.31,1.54-3.86,3.85-5.41,5.4l6.17-4.63C510.53,540.57,510.53,541.33,511.32,541.33z"/>
		<path d="M494.35,547.51l9.25,7.71c-2.31-3.09-4.63-6.17-6.94-8.49c3.08-0.77,5.39-1.54,7.7-1.54
			C499.74,542.88,496.66,544.42,494.35,547.51z"/>
		<path d="M505.14,572.18c0.76,0,1.53-0.77,2.31-1.55c-0.78-0.76-1.55-2.31-2.31-3.85V572.18z"/>
		<path d="M515.94,576.8c1.53-0.77,3.08-1.54,3.84-2.31l-3.08-5.4C516.71,571.4,515.94,574.49,515.94,576.8z"/>
		<path d="M510.53,553.67c1.55-2.31,3.09-4.62,3.86-6.94c-2.31-0.77-4.62-0.77-6.94-1.54C509.77,548.27,511.32,550.59,510.53,553.67
			z"/>
		<path d="M485.09,550.59c2.31,2.31,5.39,3.85,7.7,5.39c1.55,1.55,2.31,0.77,3.1,1.55c0.76,1.54,0.76,4.62,0.76,6.16
			c1.55-1.54,3.08-1.54,3.86-2.31v10.8c6.94-6.94-0.78-18.51-6.17-24.67c-0.76,0.76-1.55,2.31-2.31,3.85
			C489.72,549.82,486.62,549.04,485.09,550.59z"/>
	</g>
	<g>
		<path d="M1047.33,855.08c0,20.35-15.96,36.33-36.76,36.33c-20.57,0-36.97-15.98-36.97-36.33c0-19.91,16.41-35.87,36.97-35.87
			C1031.36,819.21,1047.33,835.17,1047.33,855.08z M982.79,855.08c0,15.98,11.81,28.66,28.01,28.66c15.75,0,27.35-12.69,27.35-28.43
			c0-15.98-11.6-28.89-27.58-28.89C994.6,826.41,982.79,839.33,982.79,855.08z M1004.89,873.9h-8.33v-35.89
			c3.29-0.66,7.88-1.09,13.79-1.09c6.78,0,9.84,1.09,12.47,2.62c1.97,1.53,3.5,4.38,3.5,7.88c0,3.93-3.06,6.99-7.44,8.31v0.44
			c3.49,1.32,5.46,3.93,6.57,8.75c1.09,5.46,1.74,7.65,2.62,8.97h-8.97c-1.1-1.32-1.74-4.59-2.85-8.75
			c-0.66-3.93-2.85-5.69-7.44-5.69h-3.93V873.9z M1005.1,853.55h3.93c4.61,0,8.33-1.53,8.33-5.25c0-3.28-2.42-5.46-7.67-5.46
			c-2.19,0-3.72,0.21-4.59,0.43V853.55z"/>
	</g>
</g>
</svg>
