<?xml version="1.0" encoding="utf-8"?>
<!-- Generator: Adobe Illustrator 25.0.1, SVG Export Plug-In . SVG Version: 6.00 Build 0)  -->
<svg version="1.1" id="Layer_1" xmlns="http://www.w3.org/2000/svg" xmlns:xlink="http://www.w3.org/1999/xlink" x="0px" y="0px"
	 viewBox="0 0 80 80" style="enable-background:new 0 0 80 80;" xml:space="preserve">
<g>
	<g>
		<path d="M27.6,44.8c0.1,0.1,0.2,0.2,0.3,0.2C27.9,44.9,27.9,44.7,27.6,44.8z"/>
		<path d="M28,44.6c0.1-0.2,0.2-0.4,0.2-0.6C28,44.2,27.7,44.3,28,44.6z"/>
		<path d="M28.2,53.1c-0.1-0.2-0.2-0.3-0.3-0.5C27.9,52.9,27.9,53.2,28.2,53.1z"/>
		<path d="M28.2,40.9c-0.2-0.1-0.4-0.2-0.6-0.4C27.7,40.9,27.9,40.9,28.2,40.9z"/>
		<path d="M27,39.4c0.2-0.2,0.4-0.2,0.6-0.4C27.1,39,27.1,38.9,27,39.4z"/>
		<path d="M28,39.5c0.1,0.1,0,0.3,0,0.5c0.1-0.1,0.3-0.2,0.4-0.3C28.2,39.6,28.1,39.5,28,39.5z"/>
		<path d="M27.6,35.2c0,0.1,0.1,0.2,0.1,0.4C27.7,35.5,27.8,35.2,27.6,35.2z"/>
		<path d="M27.7,40.3c0-0.2,0.1-0.5,0.1-0.8h-0.1C27.4,39.7,27.6,40,27.7,40.3z"/>
		<path d="M27.5,16.8c-0.2,0.1-0.4,0.2-0.5,0.4C27.1,17.1,27.6,17.1,27.5,16.8z"/>
		<path d="M26.8,34.6V35C26.9,34.9,27,34.8,26.8,34.6z"/>
		<path d="M28.1,37.9c0,0.3-0.1,0.6-0.1,1c0.3-0.2,0.2-0.4,0.2-0.7C28.2,37.9,28.1,37.9,28.1,37.9c0.1-0.2,0.2-0.4,0.3-0.5
			c-0.2-0.1-0.5,0-0.6,0.2C27.9,37.7,28,37.8,28.1,37.9z"/>
		<path d="M27.8,39.5c0.1,0,0.1-0.1,0.2,0c0-0.1-0.1-0.2-0.1-0.3C27.9,39.3,27.8,39.4,27.8,39.5z"/>
		<path d="M26.9,49.9c-0.1,0.1-0.2,0.2-0.4,0.4C26.7,50.4,27.1,50.2,26.9,49.9z"/>
		<path d="M26.5,55.5c-0.2-0.1-0.4-0.1-0.5-0.2C26.1,55.4,26.2,55.5,26.5,55.5z"/>
		<path d="M25.8,56.3c0.1-0.1,0.2-0.2,0.3-0.2C26,56,25.7,56,25.8,56.3z"/>
		<path d="M27.1,45.6l-0.3,0.3C27,45.9,27.1,45.7,27.1,45.6z"/>
		<path d="M27.4,60.2l0.2,0.1c0-0.1,0-0.3-0.1-0.4C27.5,60,27.4,60.1,27.4,60.2z"/>
		<path d="M27.3,38.2c-0.1,0-0.1,0-0.1,0H27.3L27.3,38.2L27.3,38.2L27.3,38.2z"/>
		<path d="M26.6,41.7c-0.1,0.1-0.2,0.1-0.3,0.2c-0.1-0.1-0.1-0.2-0.1-0.4L26,42.1c0.1,0,0.1-0.1,0.1-0.1
			C26.3,42,26.5,41.9,26.6,41.7L26.6,41.7L26.6,41.7z"/>
		<path d="M26.7,51.3c-0.1,0-0.2,0.1-0.4,0.1C26.4,51.5,26.7,51.6,26.7,51.3z"/>
		<path d="M26.9,36.2l0.2,0.5c0.1,0.1,0.2,0,0.3,0C27.3,36.4,27.1,36.3,26.9,36.2z"/>
		<path d="M27.3,37.7v0.5c0.1-0.1,0.2-0.1,0.2-0.1C27.5,38,27.4,37.9,27.3,37.7z"/>
		<path d="M26.8,42.7c-0.2-0.2-0.5-0.4-0.7-0.6l0.7,0.9c-0.5,0-0.8,0.1-1.1,0.6c0.2-0.1,0.7-0.1,0.9-0.2C27,43.2,26.8,43,26.8,42.7z
			"/>
		<path d="M27.4,38.7c-0.1-0.1-0.1-0.2-0.1-0.4c-0.4,0-0.8-0.1-0.8,0.4c0,0.2,0.1,0.3,0.2,0.5c0.1,0.2-0.1,0.4-0.1,0.5
			c0.1-0.2,0.1-0.5,0.2-0.8C27,38.5,26.9,38.7,27.4,38.7z"/>
		<path d="M24.9,55.6l0.4-0.1C25.1,55.6,24.9,55.4,24.9,55.6z"/>
		<path d="M26.7,58.5l0.1-0.1v-0.1C26.7,58.3,26.7,58.4,26.7,58.5z"/>
		<path d="M26.1,58.2c0.2,0.1,0.3,0.3,0.5,0.4c0.1-0.1,0.1-0.1,0.1-0.1C26.5,58.2,26.4,58,26.1,58.2z"/>
		<path d="M25.8,58.8c0-0.2-0.1-0.4-0.3-0.6C25.5,58.5,25.4,58.8,25.8,58.8z"/>
		<path d="M25,58.5c0.1-0.1,0.2-0.3,0.3-0.4L25,57.9C25,58.2,25,58.3,25,58.5z"/>
		<path d="M25.6,57.9l0.2-0.4C25.6,57.6,25.5,57.7,25.6,57.9z"/>
		<path d="M27.7,49.2c-0.1,0.1-0.2,0.2-0.4,0.2C27.5,49.5,27.7,49.4,27.7,49.2z"/>
		<path d="M26.8,58.3c0.2,0.5,0.2,0.4-0.2,0.8c0.6-0.3,0.7-0.5,0.4-1.1C26.9,58.2,26.8,58.2,26.8,58.3z"/>
		<path d="M27.3,52.3c-0.1-0.2-0.1-0.4-0.1-0.5C27.1,52,27.1,52.2,27.3,52.3z"/>
		<path d="M26.9,53.1c0.1-0.1,0.2-0.2,0.2-0.2C27.1,52.8,26.8,52.8,26.9,53.1z"/>
		<path d="M27.3,45l-0.5-0.2C27,44.9,27.1,45.2,27.3,45z"/>
		<path d="M26.3,37.9l-0.4,0.4C26.1,38.3,26.5,38.2,26.3,37.9z"/>
		<path d="M26.6,19.2v0.4C26.7,19.5,26.8,19.3,26.6,19.2z"/>
		<path d="M26.1,41.2l0.4-0.2l-0.2-0.7c-0.4-0.2-0.5,0.2-0.7,0.5C25.8,40.8,26.1,41,26.1,41.2z"/>
		<path d="M26.7,40.5c-0.1,0.2-0.2,0.4-0.2,0.5c0,0,0.1,0.1,0.1,0.2C26.7,41,26.7,40.8,26.7,40.5z"/>
		<path d="M26.3,17.1c0.2,0.1,0.3,0.1,0.4,0.2v-0.5c-0.2-0.1-0.4-0.1-0.7-0.1c0.1,0.1,0.3,0.2,0.5,0.2C26.5,17,26.4,17,26.3,17.1z"
			/>
		<path d="M26.5,37.7c-0.2-0.1-0.3-0.2-0.5-0.2c0.1,0.1,0.1,0.2,0.1,0.4C26.2,37.8,26.4,37.8,26.5,37.7z"/>
		<path d="M24.7,45.7c0-0.1,0.1-0.1,0.1-0.2C24.7,45.6,24.7,45.7,24.7,45.7z"/>
		<path d="M25.1,40c0.2-0.2,0.2-0.2,0.2-0.6c0.1,0.3,0.1,0.5,0.4,0.7l0.2-0.7c-0.6-0.1-0.5-0.1-0.8,0.4c-0.2,0.3-0.4,0.5-0.5,0.9
			C24.7,40.3,24.8,40.3,25.1,40z"/>
		<path d="M25.8,37.6c-0.1,0.1-0.2,0.1-0.4,0.1c0.1,0.1,0.2,0.2,0.4,0.3V37.6z"/>
		<path d="M25.5,51.1c-0.2,0.3-0.5,0.3-0.8,0.2c0.2,0.1,0.5,0.1,0.7,0.1C25.5,51.4,25.6,51.3,25.5,51.1z"/>
		<path d="M25,35.2l-0.2-0.4C24.8,35,24.7,35.2,25,35.2z"/>
		<path d="M25.3,38.3c-0.1,0.1-0.1,0.2-0.1,0.3c0.1,0.1,0.1,0.2,0.1,0.4C25.3,38.7,25.5,38.5,25.3,38.3z"/>
		<path d="M26.2,54.2c-0.1,0.1-0.2,0.2-0.4,0.3c0.2,0.1,0.1,0,0.1,0c0.1,0.1,0.2,0.1,0.3,0.1C26.2,54.4,26.2,54.3,26.2,54.2z"/>
		<polygon points="14.9,29.4 14.8,29.8 15.1,29.5 15.1,29.2 		"/>
		<polygon points="15.4,29 15.5,29.4 16.1,29.2 15.7,29 15.7,28.7 15.6,28.7 		"/>
		<polygon points="15.1,27.2 14.9,26.7 14.9,27.4 14.7,27.6 14.6,28.1 14.9,27.7 		"/>
		<polygon points="15.1,28.5 14.8,28.8 15,29.1 		"/>
		<polygon points="13.6,27.9 13.7,28.2 14.2,28.4 14,28.1 		"/>
		<polygon points="14.2,29.1 14.3,29.2 14.3,28.9 14.3,28.8 		"/>
		<polygon points="15.5,28.7 15.6,28.7 15.7,28.6 		"/>
		<polygon points="15,28.5 14.9,28 14.6,28.4 		"/>
		<polygon points="16.2,26.9 15.8,26.7 15.3,26.9 15.3,27.2 15.5,27.6 15.8,27.2 		"/>
		<polygon points="13.7,29.1 14,29.1 13.7,28.6 		"/>
		<polygon points="15.7,28.5 15.7,28.6 15.7,28.6 		"/>
		<polygon points="15.9,28.5 15.7,28.6 15.7,28.7 15.8,28.7 16.3,28.7 16.7,28.7 16.8,28.3 16.4,28.4 		"/>
		<polygon points="14.9,50.9 14.9,50.9 14.7,51.3 14.8,51.3 		"/>
		<polygon points="14.6,50.4 14.5,50.7 14.3,51 14.6,51 		"/>
		<polygon points="14.6,51.6 14.2,51.4 14.2,51.8 13.7,52.1 14.2,51.9 		"/>
		<rect x="13.8" y="52.7" width="0.2" height="0.1"/>
		<polygon points="17.1,52.1 16.7,52.4 17,52.7 17.2,53 17,52.6 		"/>
		<polygon points="16.5,27.5 16.3,27.4 15.9,27.5 15.5,27.6 15.3,27.5 14.9,28 15.5,27.9 16,27.7 15.8,28.2 16.1,27.9 16.6,27.8 
			16.9,27.9 16.3,28 16.7,28.1 17.2,27.6 16.3,27.2 		"/>
		<polygon points="15.3,51.3 15.3,51.3 15.1,51.7 15.3,51.8 		"/>
		<polygon points="14.2,52.8 14.2,53.5 14.6,53.4 14.3,53.1 		"/>
		<polygon points="16.9,51.6 16,52.4 16.1,52.5 16.6,52.1 17,51.8 		"/>
		<polygon points="16.2,51.8 16.4,51.6 16.4,51.2 15.9,51 16.4,50.7 15.9,50.3 15.7,50.4 15.8,50.9 16,51.3 16,51.6 		"/>
		<polygon points="14.1,52.4 14.5,52.5 14.8,52.1 14.5,52.2 		"/>
		<polygon points="15.2,53.1 14.8,53.4 15.3,53.6 15.7,53.6 15.8,53.4 15.9,52.7 15.5,53 		"/>
		<path d="M30,38.7L30,38.7c-0.2,0.1-0.3,0.2-0.4,0.3C29.7,38.9,29.8,38.8,30,38.7z"/>
		<path d="M25.2,56.8C25.2,56.8,25,57,25,57.1C25.1,57.1,25.3,57,25.2,56.8z"/>
		<path d="M28.6,42.1c0.1-0.2,0-0.2-0.2-0.2c-0.1,0.1-0.1,0.1-0.1,0.1C28.5,42,28.6,42.1,28.6,42.1z"/>
		<path d="M25.3,56.5c-0.1-0.1-0.1-0.4-0.1-0.5L25,56.5c0.2,0.1,0.4,0.2,0.5,0.2C25.6,56.5,25.4,56.7,25.3,56.5z"/>
		<path d="M27,41.9c0.2,0.1,0.3,0.2,0.5,0.4c0-0.4,0.1-0.7,0.2-1.1C27.4,41.5,27.3,41.7,27,41.9z"/>
		<path d="M27.6,44.9l-0.2-0.3C27.4,44.7,27.3,44.9,27.6,44.9z"/>
		<path d="M27,56.1c-0.2,0.1-0.8,0.2-0.5,0.5l0.2-0.4c0.1,0.1,0.2,0.1,0.4,0.2C27,56.3,27,56.2,27,56.1z"/>
		<path d="M25.8,51.7c0,0.1,0.1,0.1,0.1,0.1c0-0.1,0.1-0.1,0.1-0.1H25.8z"/>
		<path d="M25.9,41.4c-0.1-0.1-0.2-0.2-0.2-0.2C25.6,41.4,25.7,41.4,25.9,41.4L25.9,41.4z"/>
		<path d="M25.2,46.9c0.1-0.1,0.2-0.1,0.3-0.2C25.5,46.5,25.1,46.6,25.2,46.9z"/>
		<path d="M25.8,51.9l-0.4,0.5l0.5-0.2C25.9,52.1,25.9,52,25.8,51.9z"/>
		<path d="M25.7,49.1c-0.1-0.1-0.2-0.2-0.2-0.3C25.4,48.9,25.4,49.2,25.7,49.1z"/>
		<path d="M29.4,37.5c-0.1-0.2-0.2-0.3-0.4-0.4C29.1,37.2,29.2,37.4,29.4,37.5z"/>
		<path d="M30.7,37.8c-0.1-0.1-0.2,0.1-0.1,0.3C30.6,37.9,30.7,37.8,30.7,37.8z"/>
		<path d="M28.5,37.6c0,0.1,0,0.3,0.1,0.4C28.6,38,28.8,37.8,28.5,37.6z"/>
		<path d="M29,38.3l0.5,0.3C29.5,38.6,29.2,38,29,38.3z"/>
		<path d="M26.5,50.5c-0.4,0.2-0.8,0.4-1.1-0.1v0.4C25.7,51.3,26.1,50.8,26.5,50.5z"/>
		<path d="M29.8,36.6l0.2,0.2C30.1,36.7,30.1,36.5,29.8,36.6z"/>
		<path d="M29.2,39.7c-0.1-0.1-0.3-0.2-0.4-0.2l0.1,0.4C28.9,39.8,29.1,39.7,29.2,39.7z"/>
		<path d="M28.8,37.1c-0.1,0-0.3,0.1-0.1,0.3C28.8,37.3,28.8,37.2,28.8,37.1z"/>
		<path d="M28.8,43.2C28.8,43.2,28.9,43.2,28.8,43.2V43C28.8,43.1,28.8,43.1,28.8,43.2z"/>
		<path d="M29.2,44.2c-0.1,0.1-0.2,0.2-0.2,0.3C29.2,44.5,29.4,44.4,29.2,44.2z"/>
		<path d="M29.5,43.8l-0.4-0.5C29.1,43.5,29.1,44,29.5,43.8z"/>
		<path d="M28.8,39.4c0.1-0.2,0.2-0.4,0.5-0.5C28.9,39.1,28.6,39.1,28.8,39.4z"/>
		<path d="M30.4,39.7c0.2-0.1,0.3-0.2,0.5-0.2c-0.5-0.3-0.6-0.1-1,0.3c0.3,0,0.5-0.1,0.5,0.3c0.1,0,0.2-0.1,0.3-0.1
			C30.6,39.9,30.5,39.7,30.4,39.7z"/>
		<path d="M52.1,36.1c0.1-0.1,0.2-0.2,0.2-0.2c-0.1,0-0.2,0.1-0.4,0.1C52,36,52.1,36,52.1,36.1z"/>
		<path d="M51.6,35.2c-0.1,0.1-0.3,0.1-0.5,0.1C51.3,35.5,51.5,35.4,51.6,35.2z"/>
		<path d="M50.8,37c0.2-0.2,0.5-0.3,0.8-0.2c0-0.1-0.1-0.2-0.1-0.3L50.8,37z"/>
		<path d="M51.6,27c0.2,0,0.4-0.1,0.5-0.2c-0.4-0.1-0.4-0.3-0.6-0.5c0.1,0.2,0.1,0.5,0.2,0.7l-0.6-0.2C51.3,27.1,51.2,27.1,51.6,27z
			"/>
		<path d="M51.2,25c0.1,0.1,0.3,0.1,0.4,0.1C51.6,25,51.3,24.8,51.2,25z"/>
		<path d="M53.1,47.8c0.1-0.2,0.2-0.3,0.4-0.4C53.4,47.5,52.9,47.5,53.1,47.8z"/>
		<polygon points="64.4,28.3 64.1,28.5 64.3,28.8 		"/>
		<path d="M52.7,24.9c-0.1,0.2-0.1,0.4,0.2,0.4L52.7,24.9z"/>
		<polygon points="64.2,29.2 64.1,29.6 64.4,29.3 64.4,29 		"/>
		<path d="M52,26.1c0.1,0.2,0.1,0.4,0.1,0.5c0.1-0.7-0.1-0.8-0.6-0.3C51.7,26.2,51.9,26.1,52,26.1z"/>
		<path d="M52.6,37.8c0.2,0.1,0.4,0.2,0.5,0.3C53.1,37.8,52.9,37.7,52.6,37.8z"/>
		<path d="M49,39.9c0.2-0.1,0.3-0.2,0.5-0.3L49,39.3C49,39.4,49,39.7,49,39.9z"/>
		<path d="M42.9,40.3c0.1,0.1,0.2,0.1,0.3,0.2h0.1C43.2,40.5,43.1,40.5,42.9,40.3z"/>
		<path d="M43.5,40.8c0.1,0.2,0.3,0.3,0.5,0.3c-0.2-0.2-0.5-0.4-0.8-0.5L43.5,40.8z"/>
		<path d="M41.8,40.9c0.3,0.5,0.5,0.5,1,0.8c0.1-0.2,0.2-0.4,0.2-0.5C42.6,41.5,42.2,41.1,41.8,40.9z"/>
		<path d="M42,40.4c-0.1,0.2-0.1,0.3-0.1,0.4C42,40.7,42.1,40.6,42,40.4z"/>
		<path d="M44.2,39.9c-0.2,0.3-0.3,0.4-0.7,0.5c0.2,0.2,0.5,0.4,0.8,0.5v-0.2L44,40.3c0.1,0,0.2,0,0.3,0.1
			C44.2,40.2,44.2,40,44.2,39.9z"/>
		<path d="M44.6,40.9c0.2,0.1,0.5,0.1,0.7-0.1C45,40.6,44.8,40.6,44.6,40.9z"/>
		<path d="M50.5,40.7v-0.5c-0.1,0-0.1,0-0.1,0C50.4,40.4,50.5,40.6,50.5,40.7z"/>
		<polygon points="64.7,28.7 64.8,29.1 65.4,29 65,28.7 65,28.4 64.9,28.4 		"/>
		<path d="M48,38.7l0.5,0.4C48.4,38.8,48.3,38.7,48,38.7z"/>
		<path d="M46.7,38.5c0.1,0.1,0.2,0.2,0.4,0.4c-0.1-0.2-0.2-0.3-0.3-0.4C46.8,38.5,46.8,38.5,46.7,38.5z"/>
		<polygon points="63.5,52.6 63.5,53.3 63.9,53.2 63.6,52.9 		"/>
		<rect x="63.1" y="52.4" width="0.2" height="0.1"/>
		<path d="M41.5,41c0.2-0.1,0.2-0.1,0.3-0.2C41.7,40.9,41.6,40.9,41.5,41z"/>
		<polygon points="63.9,51.3 63.5,51.2 63.5,51.5 63,51.8 63.5,51.7 		"/>
		<polygon points="63.9,50.1 63.8,50.4 63.6,50.8 63.9,50.7 		"/>
		<polygon points="64.2,50.7 64.2,50.6 64,51 64.1,51.1 		"/>
		<polygon points="63.4,52.2 63.8,52.3 64.1,51.8 63.8,52 		"/>
		<polygon points="66.4,51.9 66,52.2 66.3,52.5 66.5,52.8 66.3,52.4 		"/>
		<polygon points="64.5,52.9 64.1,53.1 64.5,53.4 65,53.4 65.1,53.1 65.2,52.5 64.8,52.7 		"/>
		<path d="M40,0.6C18.2,0.6,0.5,18.2,0.5,40S18.2,79.4,40,79.4S79.4,61.8,79.4,40S61.7,0.6,40,0.6z M19.2,52.2l-0.1,0.5l-0.2,0.8
			L18.7,54l-0.5,0.7L18,55l-0.4,0.3l-0.4,0.2l-0.4,0.2l-0.5,0.1l-0.4,0.1h-0.4L15,56l-0.8-0.1l-0.8-0.4L13,55.2l-0.3-0.3l-0.3-0.4
			l-0.5-0.7l-0.2-0.4L11.5,53l-0.2-0.4v-0.1l0.1-0.5l0.1-0.4l0.1-0.5l0.5-1.3l0.6-0.7l0.4-0.3l0.4-0.2l0.4-0.2l0.4-0.1l0.4-0.2
			l0.5-0.1h0.8l0.4,0.1l0.8,0.4l0.4,0.2l0.3,0.2l0.4,0.4l0.3,0.4l0.2,0.4l0.4,0.8l0.1,0.4l0.1,0.5L19.2,52.2L19.2,52.2z M19.2,28.8
			l-0.1,0.4L18.7,30l-0.2,0.4l-0.3,0.4l-0.4,0.3l-0.3,0.3l-0.4,0.2l-0.4,0.2l-0.4,0.1L15.9,32L15.5,32H15L14.6,32l-0.4-0.1l-0.5-0.1
			l-0.4-0.2l-0.4-0.2L12.5,31l-0.2-0.4L12,30.3l-0.4-0.8l-0.2-0.4l-0.2-0.4v-0.1l0.1-0.4l0.1-0.5l0.1-0.4l0.1-0.4l0.4-0.8l0.2-0.4
			l0.3-0.3l0.7-0.6l0.4-0.2l0.8-0.4l0.4-0.1l0.4-0.1h0.2l0.4,0.1l0.5,0.1l0.8,0.4l0.4,0.2l0.4,0.3l0.3,0.3l0.3,0.4l0.2,0.4l0.4,0.8
			l0.1,0.4v0.5l0.1,0.4L19.2,28.8z M57.2,22.3c0,0.2-0.1,0.5-0.1,0.8c0.1,1,0.1,2,0.1,3.1c0,0.2-0.1,0.4-0.1,0.7
			c-0.1,0.3,0,0.5,0,0.8c0,0.4-0.1,0.4-0.1,0.8c0.1,0.2,0.1,0.5,0.1,0.8c0,0.5-0.2,1-0.2,1.4c0,0.5,0,1,0.1,1.4
			c0,0.6-0.1,1.1-0.1,1.6c0.1,0.5,0.2,0.9,0.1,1.4v1.5c0.1,0.5-0.1,1.1,0,1.7c0.1,0.9,0,1.8,0,2.8c-0.1,1,0.2,2.1,0.1,3.1
			C57,44.8,57,45.3,57,45.8c0,0.5,0.1,1,0.1,1.6c0,0.5-0.1,1-0.1,1.5c0,0.2-0.1,0.5-0.1,0.7C57,50,57,50.1,57,50.5
			c0,0.2,0.1,0.4,0.1,0.7c0,0.2-0.1,0.5-0.1,0.7c0,0.4,0.1,0.4,0,0.7l-0.1,0.6c0.2,1,0.1,2,0.1,3.1c0,0.2,0,0.4,0.1,0.6
			c0.1,0.3,0,0.4,0,0.7c-0.1,0.5,0.1,1,0,1.5c0,0.2-0.1,0.5-0.1,0.8c0,0.2,0.2,0.4,0.2,0.6c0.1,0.5-0.1,1.1-0.1,1.7
			c0,0.2,0,0.4-0.1,0.7c-0.1,0.4-0.1,0.4-0.3,0.7c-0.2,0.4-0.2,1-0.5,1.3c-0.7,0.6-1.6,1.2-2.6,1.3c-1.1,0.1-2-0.1-2.8-0.7
			c-0.7-0.6-1.4-1.4-1.4-2.4c-0.1-0.5-0.2-1-0.2-1.4c0-0.5,0.1-1,0.1-1.5c0-0.3-0.1-0.5-0.1-0.8c0-0.2,0.1-0.5,0.1-0.7
			c0-0.2,0-0.5,0.1-0.7c0-0.4-0.1-0.5-0.1-0.8c0-0.2,0.1-0.4,0.1-0.5c0-0.3-0.1-0.5-0.1-0.8c0-0.3,0.1-0.5,0.1-0.8
			c0.1-0.2-0.1-0.4-0.1-0.7c0-0.2,0.1-0.4,0.1-0.5c0.1-0.3-0.1-0.5-0.2-0.8c0-0.4,0.1-1,0.2-1.4v-0.8c0-0.2-0.1-0.4-0.1-0.7
			c0-0.2,0.2-0.4,0.2-0.6c0-0.2,0-0.5-0.1-0.8c-0.1-0.6-0.3-1-0.5-1.5c-0.1-0.2-0.1-0.4-0.2-0.6c-0.2-0.4-0.3-0.4-0.6-0.6
			c-0.3-0.3-0.7-0.6-1-0.9c-0.4-0.2-1.1-0.3-1.6-0.3c-1,0.1-2,0.2-3,0.1c-1.1-0.1-2,0.1-3.1,0c-0.5-0.1-1-0.1-1.5-0.1
			c-0.5,0-1,0.2-1.4,0.1c-0.6-0.1-1-0.2-1.6,0c-0.5,0.1-0.9-0.1-1.4,0.2c-0.3,0.2-0.4,0.1-0.7,0.2c-0.2,0.1-0.2,0.2-0.4,0.4
			c-0.2,0.2-0.5,0.2-0.7,0.4c-0.1,0.1-0.2,0.4-0.3,0.5C31,47,30.7,47.4,30.6,48c0,0.2-0.1,0.5-0.1,0.7c0,0.2,0.1,0.4,0.1,0.7
			c0.1,0.2-0.1,0.5-0.1,0.7c0,0.3,0.1,0.5,0.1,0.8c0,0.5-0.1,1,0,1.5c0.1,0.6,0,1,0,1.5c-0.1,0.5,0.1,1.1,0.1,1.6
			c-0.1,0.5-0.2,1-0.1,1.5c0.1,0.5,0,1,0.1,1.4c0,0.9,0.1,2-0.1,2.9c-0.1,0.5,0,1-0.1,1.5c-0.1,0.5-0.3,0.8-0.5,1.3
			c-0.2,0.5-0.2,0.8-0.7,1.1c-0.5,0.4-0.8,0.7-1.4,0.8c-1,0.2-2.2,0.2-3-0.3c-0.5-0.2-0.8-0.5-1.1-1c-0.2-0.4-0.5-0.7-0.7-1.1
			c-0.1-0.2,0-0.4-0.1-0.7c-0.1-0.1-0.2-0.3-0.2-0.5c-0.1-0.4-0.1-0.9-0.2-1.4c0.2-0.4,0.1-1,0.1-1.4c0-0.4,0.1-0.8,0.1-1.3
			c-0.1-0.3,0.1-0.4,0.1-0.7c0-0.2-0.1-0.4-0.1-0.7c0-0.2,0.1-0.4,0.1-0.7c0-0.2-0.1-0.4-0.1-0.6c0-0.5,0.1-0.8,0.1-1.3
			c-0.1-0.5,0-1,0.1-1.4c0.1-1,0.2-2.1,0.1-3.1c-0.1-0.3-0.1-0.5-0.1-0.8c0-0.3,0.1-0.5,0.1-0.8c0-0.2-0.1-0.4-0.1-0.6
			c-0.1-0.2,0.1-0.5,0.1-0.8c0-0.5,0-1,0.1-1.5c0.1-0.5,0-1.1-0.1-1.6c-0.1-1,0.1-2,0-2.9c-0.1-0.4,0-0.9,0-1.3
			c-0.1-0.4-0.2-0.9-0.2-1.3c0-0.2,0.1-0.4,0.1-0.6c0-0.3-0.1-0.4-0.1-0.7c0.1-0.4-0.1-0.8,0-1.3c0-0.5,0.2-1,0.2-1.5
			c0-0.2-0.2-0.5-0.2-0.7c0-0.2,0.2-0.4,0.2-0.6s-0.2-0.5-0.2-0.7c0-0.3,0.2-0.5,0.2-0.8v-1.4c0-0.5,0.1-1.2,0-1.7
			c0-0.2-0.1-0.4-0.1-0.5c-0.1-0.3,0.1-0.6,0.1-0.9c0-0.5-0.2-1-0.2-1.4c0.1-0.5,0.1-1.1,0.1-1.6c0-1-0.2-2-0.1-2.9
			c0.1-0.5-0.1-1-0.1-1.5c0.1-0.5,0.2-1,0.2-1.6c0-1.1,0.3-2.2,1.2-2.9c0.1-0.1,0.3-0.1,0.5-0.2c0.2-0.1,0.4-0.4,0.7-0.5
			c0.1-0.1,0.3,0,0.4,0c0.1,0,0.2-0.2,0.4-0.2c0.2-0.1,0.5-0.1,0.7,0c0.8,0.1,2,0.3,2.7,0.9c0.7,0.7,0.9,1.6,1.2,2.5
			c0.1,0.2,0.2,0.5,0.2,0.7c0,0.2-0.2,0.4-0.2,0.7c0,0.2,0.1,0.4,0.1,0.6c0,0.2-0.1,0.5-0.1,0.8c-0.1,1,0.1,2.1,0.1,3.1
			c0,1-0.1,2-0.1,3.1c0,0.5,0.1,1,0.1,1.6c-0.1,0.5-0.2,1.1-0.1,1.6c0,0.3,0.1,0.5,0,0.7c0,0.2-0.1,0.5,0,0.7c0.1,0.5,0.2,1,0.2,1.6
			c0.1,0.9-0.1,1.9,0.5,2.8c0.6,0.9,1.1,1.3,2.3,1.4c0.2,0,0.5,0.1,0.7,0.1c0.3,0.1,0.4,0,0.7,0s0.5,0.1,0.7,0.1
			c0.4,0,0.4,0.1,0.7,0.2c0.5,0.1,1-0.2,1.4-0.1c0.4,0.1,0.4,0.2,0.8,0.1c0.3,0,0.5-0.1,0.7-0.1c0.5,0,1,0.1,1.5,0.1
			c0.5,0,1-0.2,1.4-0.2c1,0.1,2.1-0.1,3.1-0.1c1-0.1,2-0.2,2.7-0.9c0.4-0.4,0.6-0.8,0.9-1.3c0.1-0.3,0.1-0.4,0.2-0.7
			c0.1-0.2,0.2-0.4,0.2-0.6c0.1-0.2-0.1-0.5-0.1-0.7v-0.8c0.1-0.5,0.1-1,0.1-1.5c0.1-0.5,0.1-1-0.1-1.4c-0.1-0.5,0.1-0.8,0-1.3
			c-0.1-1,0.1-2.2,0.1-3.2c0-0.5-0.1-0.9-0.1-1.4c0.1-0.5,0.1-1,0-1.5c-0.1-0.5,0.1-1,0.1-1.4c-0.1-0.5-0.1-1-0.1-1.6
			c0.1-0.5-0.1-0.8,0.2-1.4c0.1-0.2,0.1-0.5,0.2-0.7c0.1-0.2,0.3-0.5,0.5-0.7c0.6-1,1.3-1.4,2.3-1.6s1.9-0.1,2.9,0.5
			c1,0.5,1.3,1.6,1.7,2.5c0.4,0.8,0.2,2.1,0.3,3.1c0,0.5-0.1,1-0.2,1.4C57,21.8,57.1,22,57.2,22.3z M60.6,28.4l0.1-0.4l0.1-0.5
			l0.1-0.4l0.1-0.4l0.4-0.8l0.2-0.4l0.3-0.3l0.7-0.6l0.4-0.2l0.8-0.4l0.4-0.1l0.4-0.1h0.2l0.4,0.1l0.5,0.1l0.8,0.4l0.4,0.2l0.4,0.3
			l0.3,0.3l0.3,0.4l0.2,0.4l0.4,0.8l0.1,0.4v0.5l0.1,0.4l-0.1,0.5L68.4,29L68,29.8l-0.2,0.4l-0.3,0.4l-0.4,0.3l-0.3,0.3l-0.4,0.2
			l-0.4,0.2l-0.4,0.1l-0.5,0.1l-0.4,0.1h-0.5l-0.4-0.1l-0.4-0.1L63,31.5l-0.4-0.2l-0.4-0.2l-0.4-0.3l-0.2-0.4L61.3,30l-0.4-0.8
			l-0.2-0.4L60.6,28.4L60.6,28.4L60.6,28.4z M68.6,53l-0.2,0.8l-0.2,0.4l-0.5,0.7l-0.3,0.3L67,55.5l-0.4,0.2l-0.4,0.2L65.7,56
			l-0.4,0.1h-0.4l-0.5,0.1l-0.8-0.1l-0.8-0.4l-0.4-0.3l-0.3-0.3l-0.3-0.4L61.3,54l-0.2-0.4l-0.2-0.4l-0.2-0.4v-0.1l0.1-0.5l0.1-0.4
			l0.1-0.5l0.5-1.3l0.6-0.7l0.4-0.3l0.4-0.2l0.4-0.2l0.4-0.1l0.4-0.2l0.5-0.1h0.8l0.4,0.1l0.8,0.4l0.4,0.2l0.3,0.2l0.4,0.4l0.3,0.4
			l0.2,0.4l0.4,0.8l0.1,0.4l0.1,0.5v0.4L68.6,53z"/>
		<polygon points="65.7,51.3 65.7,51 65.2,50.7 65.7,50.5 65.2,50.1 65,50.2 65.1,50.6 65.3,51.1 65.3,51.4 65.5,51.6 		"/>
		<polygon points="66.2,51.4 65.3,52.1 65.4,52.2 65.9,51.9 66.3,51.6 		"/>
		<polygon points="65.5,26.7 65.1,26.5 64.6,26.6 64.5,27 64.8,27.3 65.1,27 		"/>
		<polygon points="64.4,27 64.2,26.5 64.2,27.2 64,27.3 63.9,27.9 64.2,27.5 		"/>
		<polygon points="64.8,28.4 64.9,28.4 65,28.4 		"/>
		<polygon points="65,28.3 65,28.4 65,28.4 		"/>
		<polygon points="64.6,51.1 64.5,51.1 64.4,51.5 64.5,51.5 		"/>
		<polygon points="65.2,28.3 65,28.4 65,28.4 65.1,28.4 65.6,28.5 66,28.5 66.1,28.1 65.7,28.2 		"/>
		<path d="M28.3,59.9l-0.4-0.4C27.9,59.7,28,60.1,28.3,59.9z"/>
		<polygon points="63.6,28.7 63.6,28.6 63.5,28.9 63.6,29 		"/>
		<polygon points="64.2,27.8 63.9,28.2 64.3,28.3 		"/>
		<polygon points="63.5,28.2 63.3,27.8 62.9,27.7 63,28 		"/>
		<polygon points="63,28.9 63.3,28.9 63,28.4 		"/>
		<polygon points="65.3,27.5 65.1,27.9 65.4,27.7 65.9,27.5 66.2,27.6 65.6,27.8 66,27.9 66.5,27.4 65.6,26.9 65.8,27.2 65.6,27.2 
			65.2,27.2 64.8,27.3 64.6,27.3 64.2,27.8 64.8,27.6 		"/>
		<path d="M33.9,38.7c-0.1,0.1-0.2,0.1-0.3,0.1C33.7,38.9,33.9,39,33.9,38.7z"/>
		<path d="M32.5,39.2c0.1,0,0.2,0.1,0.4,0.1C33,39.3,32.8,39,32.5,39.2z"/>
		<path d="M32.4,38.6c0.1-0.1,0.1-0.3,0.1-0.4C32.5,38.3,32.2,38.4,32.4,38.6z"/>
		<path d="M31.2,38.8c0.1,0,0.2-0.1,0.3-0.1c-0.1-0.1-0.1-0.2-0.2-0.2C31.2,38.5,31.2,38.7,31.2,38.8z"/>
		<path d="M38.2,38.4c0,0.5,0,0.6-0.2,1c0.1,0,0.2-0.1,0.4-0.1C38.2,39,38.6,38.5,38.2,38.4z"/>
		<path d="M37.2,39l-0.4,0.2c0.2,0,0.3,0,0.5,0C37.2,39.1,37.2,39.1,37.2,39z"/>
		<path d="M34.7,41.8l0.2-0.4C34.8,41.4,34.5,41.5,34.7,41.8z"/>
		<path d="M36.6,38.7c-0.1,0.1-0.2,0.3-0.4,0.4C36.5,39,36.7,38.8,36.6,38.7z"/>
		<path d="M37.4,39v0.2h0.3C37.6,39.1,37.5,39,37.4,39z"/>
		<path d="M37.4,39.2c-0.1,0-0.1,0-0.1,0c0,0.1,0.1,0.1,0.1,0.1S37.3,39.3,37.4,39.2z"/>
		<path d="M30.7,40.8c0.2-0.2,0.2-0.5,0.5-0.5c-0.2-0.1-0.4-0.1-0.7-0.1C30.7,40.5,30.7,40.6,30.7,40.8z"/>
		<path d="M40.6,39.7c0.4,0,0.4-0.7,0.8-0.2c-0.1-0.3-0.2-0.5-0.1-0.8C41.1,39.1,40.9,39.4,40.6,39.7z"/>
		<path d="M28.4,56.1c0.1-0.1,0.2-0.2,0.4-0.2h-0.5C28.3,55.9,28.3,56.1,28.4,56.1z"/>
		<path d="M28.7,45.3c0.2,0,0.4-0.1,0.7-0.1C29.1,45.2,28.8,44.9,28.7,45.3z"/>
		<path d="M28.7,57c-0.1-0.1-0.1-0.2-0.2-0.4C28.5,56.8,28.5,57,28.7,57z"/>
		<path d="M27.7,58c0.2,0.1,0.4,0.2,0.6,0.2C28.2,58,28,57.9,27.7,58z"/>
		<path d="M30.8,41.2l0.2,0.4C31.1,41.4,31,41.2,30.8,41.2z"/>
		<path d="M27.8,58.3c-0.1-0.1-0.1-0.2-0.1-0.4c-0.1-0.1-0.1-0.1-0.2-0.1C27.6,58,27.7,58.2,27.8,58.3z"/>
		<path d="M29.9,41c-0.1,0.4,0.1,0.7,0.5,1.1C30.1,41.7,30,41.5,29.9,41C29.9,41.1,29.9,41,29.9,41z"/>
		<path d="M34.6,39.3c0.2-0.2,0.4-0.5,0.5-0.8C34.6,38.8,34.6,38.8,34.6,39.3z"/>
		<path d="M29.8,40.5c0.1,0.1,0.1,0.3,0.1,0.5c0.1-0.1,0.1-0.2,0.1-0.2C30,40.6,29.8,40.6,29.8,40.5z"/>
		<path d="M30.1,42.3c-0.2-0.2-0.3-0.3-0.5-0.4C29.4,42.3,29.7,42.5,30.1,42.3z"/>
		<path d="M29.4,40.4c0.2,0,0.3,0,0.4,0.1c-0.1-0.2-0.1-0.4-0.2-0.5L29.4,40.4z"/>
		<path d="M30.6,43c0-0.1,0.1-0.2,0-0.4C30.5,42.7,30.3,42.9,30.6,43z"/>
		<path d="M42.5,40.6C42.5,40.5,42.5,40.5,42.5,40.6v-0.1C42.4,40.5,42.4,40.5,42.5,40.6c-0.2,0.1-0.2,0.4,0,0.5V40.6z"/>
		<path d="M39.6,39.6c0.2-0.2,0.3-0.5,0.1-0.7C39.7,38.8,39.7,39.4,39.6,39.6z"/>
		<path d="M40.9,38.5c-0.2,0.1-0.4,0.2-0.3,0.4l0.5-0.1C41,38.7,40.9,38.6,40.9,38.5z"/>
		<path d="M42.1,39.2c-0.2,0-0.3,0-0.5,0.1c0.2,0.1,0.3,0.3,0.4,0.5C42.1,39.6,42.1,39.4,42.1,39.2z"/>
		<path d="M42.9,39.1c-0.2-0.2-0.3-0.4-0.4-0.5C42.3,38.7,42.6,39.3,42.9,39.1z"/>
		<path d="M35.9,40.6l0.3-0.5c-0.4,0-0.5,0.1-0.9,0.3l0.6-0.1C35.9,40.4,36,40.5,35.9,40.6z"/>
		<path d="M41,40.1L41,40.1c0-0.1-0.1-0.1-0.1-0.1C40.9,40,40.9,40,41,40.1z"/>
		<path d="M45,38.6l-0.4,0.2C44.8,38.8,45,38.8,45,38.6z"/>
		<path d="M41.1,40c0.1,0,0.2,0.1,0.3,0.1c0.1-0.1,0-0.2,0-0.3C41.2,39.9,41.2,39.9,41.1,40z"/>
		<path d="M41,40.6c0.2,0.4,0,0.6-0.2,0.9c0.2-0.1,0.4-0.2,0.5-0.2c-0.2-0.4-0.2-0.7-0.4-1.1l-0.4,0.1C40.6,40.5,40.9,40.4,41,40.6z
			"/>
		<path d="M40.6,39.3c-0.3-0.2-0.4-0.4-0.5-0.7c0.1,0.4,0.2,0.7,0.2,1c-0.1-0.1-0.2-0.1-0.4-0.1c-0.2,0.4,0.2,0.7,0.5,0.5
			C40.5,39.6,40.3,39.4,40.6,39.3z"/>
		<path d="M40.8,42.1c-0.1-0.1-0.3-0.2-0.5-0.2C40.2,42,40.5,42.4,40.8,42.1z"/>
		<path d="M43.9,39.1l-0.2,0.4C43.8,39.4,44.2,39.4,43.9,39.1z"/>
		<path d="M37.5,41.3c0,0.1,0,0.3,0.1,0.4c0.1-0.1,0.2-0.2,0.3-0.4C37.7,41.4,37.6,41.4,37.5,41.3z"/>
		<path d="M35.5,40.9c0-0.1,0.1-0.1,0.2-0.1c-0.1,0-0.1,0-0.1-0.1C35.6,40.8,35.5,40.9,35.5,40.9z"/>
		<path d="M37.8,40.1l0.1,0.1c0.2-0.1,0.7-0.5,0.4-0.7c-0.4-0.2-0.9,0.1-1.1,0.2l0.5,0.2c0,0-0.1,0-0.1,0.1h0.1
			c-0.2,0.1-0.3,0.3-0.4,0.4L37.8,40.1C37.7,40,37.7,40.1,37.8,40.1z"/>
		<path d="M36.4,40.6l0.7,0.6c-0.2-0.2-0.4-0.5-0.5-0.7c0.2-0.1,0.4-0.1,0.6-0.1C36.9,40.2,36.6,40.3,36.4,40.6z"/>
		<path d="M37.3,42.5c0.1,0,0.1-0.1,0.2-0.1c-0.1-0.1-0.1-0.2-0.2-0.3V42.5z"/>
		<path d="M38.1,42.9c0.1-0.1,0.2-0.1,0.3-0.2l-0.2-0.4C38.2,42.4,38.1,42.7,38.1,42.9z"/>
		<path d="M37.7,41.1c0.1-0.2,0.2-0.4,0.3-0.5c-0.2-0.1-0.4-0.1-0.5-0.1C37.6,40.6,37.8,40.8,37.7,41.1z"/>
		<path d="M35.7,40.8c0.2,0.2,0.4,0.3,0.6,0.4c0.1,0.1,0.2,0.1,0.2,0.1c0.1,0.1,0.1,0.4,0.1,0.5c0.1-0.1,0.2-0.1,0.3-0.2v0.8
			c0.5-0.5-0.1-1.4-0.5-1.9c-0.1,0.1-0.1,0.2-0.2,0.3C36.1,40.8,35.8,40.7,35.7,40.8z"/>
	</g>
	<g>
		<path d="M79.5,64.5c0,1.6-1.2,2.8-2.9,2.8c-1.6,0-2.9-1.2-2.9-2.8c0-1.5,1.3-2.8,2.9-2.8C78.2,61.7,79.5,63,79.5,64.5z M74.5,64.5
			c0,1.2,0.9,2.2,2.2,2.2c1.2,0,2.1-1,2.1-2.2c0-1.2-0.9-2.2-2.1-2.2C75.4,62.3,74.5,63.3,74.5,64.5z M76.2,66h-0.6v-2.8
			c0.3-0.1,0.6-0.1,1.1-0.1c0.5,0,0.8,0.1,1,0.2c0.2,0.1,0.3,0.3,0.3,0.6c0,0.3-0.2,0.5-0.6,0.6v0c0.3,0.1,0.4,0.3,0.5,0.7
			c0.1,0.4,0.1,0.6,0.2,0.7h-0.7c-0.1-0.1-0.1-0.4-0.2-0.7c-0.1-0.3-0.2-0.4-0.6-0.4h-0.3L76.2,66L76.2,66z M76.2,64.4h0.3
			c0.4,0,0.6-0.1,0.6-0.4c0-0.3-0.2-0.4-0.6-0.4c-0.2,0-0.3,0-0.4,0V64.4z"/>
	</g>
</g>
</svg>
