<?xml version="1.0" encoding="utf-8"?>
<!-- Generator: Adobe Illustrator 25.0.1, SVG Export Plug-In . SVG Version: 6.00 Build 0)  -->
<svg version="1.1" id="Layer_1" xmlns="http://www.w3.org/2000/svg" xmlns:xlink="http://www.w3.org/1999/xlink" x="0px" y="0px"
	 viewBox="0 0 500 500" style="enable-background:new 0 0 500 500;" xml:space="preserve">
<style type="text/css">
	.st0{clip-path:url(#SVGID_2_);fill:url(#SVGID_3_);}
	.st1{clip-path:url(#SVGID_5_);fill:#231F20;}
</style>
<g>
	<defs>
		<path id="SVGID_1_" d="M155.1,202.54c-6.63,12.72-10.83,25.78-1.5,26.96c5.79,0.73,20.2-10.47,26.15-15.86
			c13.56-12.28,28.66-16.74,35.74-17.44l-1.59-0.6c-10.67,0.03-22.14,3.7-32,11.09c11.3-9.89,25.92-14.8,39.56-13.97l1.5-0.95
			c2.05,0.23,4.4,0.73,6.51,1.27l1.43-1.18c-13.64-7.88-34.04-0.58-41.72,2.25c-1.48,0.55-2.33,0.15-1.93-0.99
			c10.2-28.66,35.88-47.49,53.42-47.49c14.13,0,14.91,13.28,11.55,35.43c-5.91,38.95,12.9,62.59,44.1,62.59
			c31.38,0,60.16-37.8,77.25-59.18c0.23-0.16-0.11-0.72,0.23-0.82c0.69-1.22,2.73-2.39,2.6-3.62
			c-10.73,12.11-21.07,24.5-32.66,36.02l-0.15-0.17c3.21-3.56,6.72-7.12,9.71-10.59c1.27-1.47,2.73-2.87,3.4-4.55
			c-0.14,0.29-0.43,0.47-0.64,0.71c3.95-4.85,6-8.14,10.34-12.88c0.09-0.84,0.14-0.84,0.09-1.57c4.18-4.72,8.67-10.09,10.54-15.83
			c-3.17,3.23-6.51,7.21-9.75,9.85c2.33-3.6,4.61-7.16,7.43-10.76c-1.1,0.66-1.59,1.75-2.41,2.6c-0.04-0.48,1.42-1.52,0.65-1.68
			c-0.14-0.03-0.96,0.7-1.52,1.26c-1.38,1.38-3.37,4.49-4.29,4.91c1.41-1.96,2.85-3.79,3.55-5.74c-3.81,4.65-8.54,10.21-12.96,14.36
			c1.68-1.92,3.64-3.92,5.24-6.07c1.63-2.16,3.48-4.27,4.38-6.48c-5.17,6.35-13.23,16.5-18.78,21.5c-0.3,0.28-0.93,0.46-1.13,0.33
			c-0.52,0.42-0.59,0.95-1.16,0.89c4.8-5.16,9.46-10.44,13.83-15.88c-2.01,1.46-2.92,3.66-5.04,5.05c0.8-1.41,2.85-2.85,2.88-4.25
			c-1.71,2.45-0.01-0.74,0.12-1.38c-0.95,1.13-1.91,2.23-2.87,3.3l0.34-0.13c-14.22,16.4-38.62,41.7-58.63,41.7
			c-27.36,0-25.68-28.42-23.82-42.37c6.24-46.92-7.88-60.34-26.67-60.34C229.05,121.85,189.06,137.43,155.1,202.54 M407.3,122.85
			c-0.31,0.25-0.65,0.79-0.75,1.06c0.09,0.34-0.57,0.78-0.37,1.17c-2.81,3.48-16.14,20.02-16.87,20.9
			c-0.11,0.68-1.74,4.01-0.07,1.43c0.03,1.45-2.02,3-2.81,4.48c2.13-1.51,3.02-3.81,5.03-5.39c-4.04,5.4-8.34,10.65-12.77,15.8
			l0.29,0.21c0.24-0.02,0.88-0.26,1.1-0.47c5.54-5.37,13.51-16.14,18.6-22.87c-0.86,2.31-2.7,4.56-4.29,6.85
			c-1.58,2.27-3.53,4.41-5.2,6.45c4.42-4.45,9.1-10.35,12.87-15.28c-0.66,2.03-2.07,3.97-3.47,6.05c0.94-0.46,2.88-3.76,4.26-5.22
			c0.55-0.6,1.36-1.39,1.51-1.36c0.8,0.14-0.66,1.26-0.61,1.75c0.82-0.9,1.28-2.05,2.4-2.77c-2.78,3.81-5.02,7.58-7.29,11.38
			c2.8-2.45,5.63-5.92,8.39-9.04c17.02-15.51,3-16.11,2.88-16.12c-0.05,0-0.11-0.01-0.16-0.01
			C408.99,121.85,407.68,122.59,407.3,122.85"/>
	</defs>
	<clipPath id="SVGID_2_">
		<use xlink:href="#SVGID_1_"  style="overflow:visible;"/>
	</clipPath>
	
		<linearGradient id="SVGID_3_" gradientUnits="userSpaceOnUse" x1="-35.4609" y1="536.9813" x2="-31.5562" y2="536.9813" gradientTransform="matrix(76.5741 0 0 -76.5741 2855.7129 41301.6055)">
		<stop  offset="0" style="stop-color:#F47B20"/>
		<stop  offset="0.8" style="stop-color:#FFD900"/>
		<stop  offset="1" style="stop-color:#FFD900"/>
	</linearGradient>
	<rect x="144.27" y="121.85" class="st0" width="279.99" height="121.8"/>
</g>
<g>
	<defs>
		<rect id="SVGID_4_" x="31.81" y="68.83" width="436.87" height="362.83"/>
	</defs>
	<clipPath id="SVGID_5_">
		<use xlink:href="#SVGID_4_"  style="overflow:visible;"/>
	</clipPath>
	<path class="st1" d="M59.44,336.06h-5.07l-1.18,6.22h4.98l-0.27,1.48h-4.96l-1.27,6.73h-1.98l2.98-15.91h7.04L59.44,336.06z
		 M69.51,343.81c0,3.59-2.39,6.95-5.75,6.95c-3.27,0-4.61-2.77-4.61-5c0-3.36,2.3-6.91,6.13-6.91
		C67.58,338.85,69.51,340.81,69.51,343.81 M61.1,345.76c0,0.96,0.32,3.64,2.71,3.64c2.23,0,3.75-2.68,3.75-5.54
		c0-0.82-0.09-3.64-2.46-3.64C62.55,340.21,61.1,343.03,61.1,345.76 M74.37,340.99l0.04,0.04c1.14-1.41,1.77-2.18,3.07-2.18
		c0.62,0,1.07,0.41,1.48,0.78l-0.95,1.27c-0.18-0.09-0.61-0.23-1.23-0.23c-1.27,0-2.48,1.36-3.14,4.79l-0.96,5.02h-1.84l2.14-11.36
		h1.8L74.37,340.99z M88.01,341.58l0.05,0.05c0.91-1.45,2.48-2.77,4.27-2.77c2.39,0,3.27,2.09,3.27,4.36c0,3-2.27,7.54-6.22,7.54
		c-1.07,0-2.11-0.41-2.87-1.18l-1.2,6.59h-1.84l3.18-17.04h1.84L88.01,341.58z M89.65,349.39c1.46,0,4-2.36,4-6.31
		c0-1.09-0.36-2.68-2.09-2.68c-1.73,0-4.09,2.5-4.72,7.72C87.49,349.21,88.53,349.39,89.65,349.39 M105.06,349.62
		c-1.5,0.82-3,1.13-4.46,1.13c-2.41,0-3.54-1.73-3.54-4.22c0-3.41,2.84-7.68,6.86-7.68c1.25,0,2.68,0.73,2.68,2.59
		c0,2.73-3.86,4.46-7.59,4.22c-0.09,1.55,0.09,3.73,2.39,3.73c1.16,0,2.43-0.59,3.02-0.91L105.06,349.62z M104.65,341.81
		c0.07-0.96-0.55-1.59-1.36-1.59c-1.55,0-3.52,1.87-4,4.14C102.44,344.62,104.53,343.17,104.65,341.81 M117.92,343.81
		c0,3.59-2.38,6.95-5.75,6.95c-3.27,0-4.61-2.77-4.61-5c0-3.36,2.3-6.91,6.13-6.91C115.99,338.85,117.92,340.81,117.92,343.81
		 M109.51,345.76c0,0.96,0.32,3.64,2.71,3.64c2.23,0,3.75-2.68,3.75-5.54c0-0.82-0.09-3.64-2.46-3.64
		C110.97,340.21,109.51,343.03,109.51,345.76 M122.54,341.58l0.04,0.05c0.91-1.45,2.48-2.77,4.28-2.77c2.38,0,3.27,2.09,3.27,4.36
		c0,3-2.27,7.54-6.22,7.54c-1.07,0-2.11-0.41-2.86-1.18l-1.21,6.59h-1.84l3.18-17.04h1.84L122.54,341.58z M124.17,349.39
		c1.46,0,4-2.36,4-6.31c0-1.09-0.36-2.68-2.09-2.68c-1.73,0-4.09,2.5-4.72,7.72C122.02,349.21,123.06,349.39,124.17,349.39
		 M131.47,350.49l3.13-16.7h1.84l-3.14,16.7H131.47z M144.7,349.62c-1.5,0.82-3,1.13-4.46,1.13c-2.41,0-3.54-1.73-3.54-4.22
		c0-3.41,2.84-7.68,6.86-7.68c1.25,0,2.68,0.73,2.68,2.59c0,2.73-3.86,4.46-7.59,4.22c-0.09,1.55,0.09,3.73,2.39,3.73
		c1.16,0,2.43-0.59,3.02-0.91L144.7,349.62z M144.29,341.81c0.07-0.96-0.55-1.59-1.36-1.59c-1.55,0-3.52,1.87-4,4.14
		C142.09,344.62,144.17,343.17,144.29,341.81 M155.68,338.9c0.32,2.95,0.86,6.76,0.82,8.81l0.04,0.05c0.36-1.23,1.68-3.81,4.59-8.63
		h1.34c0.5,2.84,1.2,6.95,1.27,8.68h0.04c1.02-2.36,1.57-3.59,4.59-8.9l1.54,0.47l-6.18,11.11h-1.14c-0.5-2.8-1.48-7.45-1.39-9.27
		l-0.05-0.05c-0.55,1.86-3.27,6.52-4.86,9.32h-1.02l-1.5-11.36L155.68,338.9z M173.81,339.13l-2.14,11.36h-1.84l2.13-11.36H173.81z
		 M172.36,335.69c0-0.88,0.72-1.52,1.43-1.52c0.75,0,0.98,0.64,0.98,0.98c0,0.68-0.55,1.61-1.45,1.61
		C172.41,336.76,172.36,335.99,172.36,335.69 M180.45,350.21c-0.77,0.32-1.59,0.55-2.3,0.55c-2.05,0-2.73-1.43-2.3-3.59l1.32-6.84
		h-1.43l0.25-1.2h1.43l0.5-2.73l1.98-0.68l-0.64,3.4h2.68l-0.25,1.2h-2.68l-1.34,7.05c-0.25,1.29,0.02,2.02,0.89,2.02
		c0.61,0,1.25-0.18,1.7-0.32L180.45,350.21z M185.86,341.85l0.05,0.05c0.95-1.32,2.38-3.05,5.13-3.05c1.3,0,2.45,0.93,2.45,2.32
		c0,0.8-0.14,1.39-0.29,2.14l-1.43,7.18h-1.84l1.43-6.93c0.11-0.45,0.23-1.25,0.23-1.8c0-0.84-0.5-1.41-1.59-1.41
		c-1.86,0-4.31,2.73-4.86,5.77l-0.8,4.37h-1.82l3.14-16.7h1.82L185.86,341.85z M205.45,339.13l-2.14,11.36h-1.84l2.13-11.36H205.45z
		 M204,335.69c0-0.88,0.73-1.52,1.43-1.52c0.75,0,0.98,0.64,0.98,0.98c0,0.68-0.55,1.61-1.45,1.61
		C204.04,336.76,204,335.99,204,335.69 M209.93,341.85l0.04,0.05c0.96-1.32,2.39-3.05,5.13-3.05c1.3,0,2.46,0.93,2.46,2.32
		c0,0.8-0.14,1.39-0.3,2.14l-1.43,7.18H214l1.43-6.93c0.11-0.45,0.23-1.25,0.23-1.8c0-0.84-0.5-1.41-1.59-1.41
		c-1.86,0-4.31,2.73-4.86,5.77l-0.8,4.37h-1.82l2.13-11.36h1.77L209.93,341.85z M224.73,350.21c-0.77,0.32-1.59,0.55-2.3,0.55
		c-2.05,0-2.73-1.43-2.29-3.59l1.32-6.84h-1.43l0.25-1.2h1.43l0.5-2.73l1.98-0.68l-0.64,3.4h2.68l-0.25,1.2h-2.68l-1.34,7.05
		c-0.25,1.29,0.02,2.02,0.89,2.02c0.61,0,1.25-0.18,1.71-0.32L224.73,350.21z M234.91,349.62c-1.5,0.82-3,1.13-4.46,1.13
		c-2.4,0-3.54-1.73-3.54-4.22c0-3.41,2.83-7.68,6.86-7.68c1.25,0,2.69,0.73,2.69,2.59c0,2.73-3.87,4.46-7.59,4.22
		c-0.09,1.55,0.09,3.73,2.39,3.73c1.16,0,2.43-0.59,3.02-0.91L234.91,349.62z M234.5,341.81c0.07-0.96-0.55-1.59-1.37-1.59
		c-1.54,0-3.52,1.87-3.99,4.14C232.3,344.62,234.39,343.17,234.5,341.81 M237.32,350.49l3.14-16.7h1.84l-3.14,16.7H237.32z
		 M242.44,350.49l3.14-16.7h1.84l-3.14,16.7H242.44z M255.66,349.62c-1.5,0.82-3,1.13-4.45,1.13c-2.41,0-3.55-1.73-3.55-4.22
		c0-3.41,2.84-7.68,6.86-7.68c1.25,0,2.68,0.73,2.68,2.59c0,2.73-3.87,4.46-7.59,4.22c-0.09,1.55,0.09,3.73,2.39,3.73
		c1.16,0,2.43-0.59,3.02-0.91L255.66,349.62z M255.25,341.81c0.07-0.96-0.55-1.59-1.36-1.59c-1.54,0-3.52,1.87-4,4.14
		C253.04,344.62,255.14,343.17,255.25,341.81 M266.09,349.62c-1.23,0.72-2.41,1.13-3.64,1.13c-3.59,0-4.3-3.13-4.3-4.95
		c0-2.36,1.84-6.95,6.93-6.95c0.96,0,1.91,0.37,2.48,0.91l-0.82,1.09c-0.29-0.22-1.34-0.64-2.16-0.64c-2.09,0-4.48,2.18-4.48,5.45
		c0,1.18,0.32,3.68,2.77,3.68c0.91,0,1.8-0.41,2.57-0.86L266.09,349.62z M273.26,350.21c-0.77,0.32-1.59,0.55-2.3,0.55
		c-2.04,0-2.72-1.43-2.29-3.59l1.32-6.84h-1.43l0.25-1.2h1.43l0.5-2.73l1.98-0.68l-0.64,3.4h2.68l-0.25,1.2h-2.68l-1.34,7.05
		c-0.25,1.29,0.02,2.02,0.89,2.02c0.61,0,1.25-0.18,1.71-0.32L273.26,350.21z M283.17,347.03l-0.05-0.04
		c-0.93,2.49-3.27,3.77-5.18,3.77c-1.32,0-2.32-1.02-2.32-2.41c0-0.8,0.07-1.3,0.23-2.05l1.43-7.18h1.84l-1.43,6.93
		c-0.11,0.46-0.21,1.25-0.21,1.79c0,0.96,0.59,1.41,1.59,1.41c1.77,0,4.18-3.34,4.7-6.27l0.71-3.87h1.82l-2.14,11.36h-1.77
		L283.17,347.03z M296.48,350.49h-1.84l0.41-2.14l-0.04-0.05c-0.5,0.73-2.25,2.45-4.21,2.45c-1.75,0-3.18-1.73-3.18-4.18
		c0-4.13,2.84-7.72,6.34-7.72c0.96,0,2.05,0.59,2.53,1.55h0.04l0.23-1.27h1.86L296.48,350.49z M293.91,340.21
		c-2.32,0-4.33,2.37-4.33,6.27c0,1.73,0.7,2.73,1.91,2.73c1.84,0,4.28-2.5,4.61-6.63C296.23,341.53,295.19,340.21,293.91,340.21
		 M299.78,350.49l3.14-16.7h1.84l-3.14,16.7H299.78z M58.55,378.63h-1.84l0.41-2.13l-0.05-0.05c-0.5,0.73-2.25,2.45-4.2,2.45
		c-1.75,0-3.18-1.73-3.18-4.18c0-4.14,2.84-7.73,6.34-7.73c0.95,0,2.04,0.59,2.52,1.55h0.04l0.23-1.27h1.87L58.55,378.63z
		 M55.98,368.37c-2.32,0-4.34,2.36-4.34,6.27c0,1.73,0.7,2.73,1.91,2.73c1.84,0,4.27-2.5,4.61-6.64
		C58.3,369.68,57.26,368.37,55.98,368.37 M65.19,370l0.04,0.04c0.96-1.32,2.39-3.05,5.14-3.05c1.29,0,2.45,0.93,2.45,2.32
		c0,0.8-0.14,1.38-0.3,2.14l-1.43,7.18h-1.84l1.43-6.93c0.11-0.45,0.23-1.25,0.23-1.8c0-0.84-0.5-1.41-1.59-1.41
		c-1.86,0-4.32,2.73-4.86,5.77l-0.8,4.36h-1.82l2.14-11.36h1.78L65.19,370z M83.44,378.63H81.6l0.41-2.13l-0.05-0.05
		c-0.5,0.73-2.25,2.45-4.2,2.45c-1.75,0-3.18-1.73-3.18-4.18c0-4.14,2.84-7.73,6.34-7.73c0.96,0,2.04,0.59,2.52,1.55h0.05l1.23-6.61
		h1.84L83.44,378.63z M80.87,368.37c-2.32,0-4.34,2.36-4.34,6.27c0,1.73,0.7,2.73,1.91,2.73c1.84,0,4.27-2.5,4.61-6.64
		C83.19,369.68,82.14,368.37,80.87,368.37 M102.01,378.63h-1.84l0.41-2.13l-0.05-0.05c-0.5,0.73-2.25,2.45-4.2,2.45
		c-1.75,0-3.18-1.73-3.18-4.18c0-4.14,2.84-7.73,6.34-7.73c0.95,0,2.04,0.59,2.52,1.55h0.04l1.23-6.61h1.84L102.01,378.63z
		 M99.45,368.37c-2.32,0-4.34,2.36-4.34,6.27c0,1.73,0.7,2.73,1.91,2.73c1.84,0,4.27-2.5,4.62-6.64
		C101.76,369.68,100.72,368.37,99.45,368.37 M113.42,377.77c-1.5,0.82-2.99,1.14-4.45,1.14c-2.41,0-3.54-1.73-3.54-4.22
		c0-3.41,2.84-7.68,6.86-7.68c1.25,0,2.68,0.73,2.68,2.59c0,2.73-3.86,4.46-7.59,4.23c-0.09,1.54,0.09,3.72,2.39,3.72
		c1.16,0,2.43-0.59,3.02-0.91L113.42,377.77z M113.01,369.96c0.07-0.96-0.54-1.59-1.36-1.59c-1.55,0-3.52,1.86-4,4.14
		C110.81,372.77,112.9,371.32,113.01,369.96 M118.67,378.63l-2.36-11.27l1.95-0.32c0.96,5.45,1.18,6.68,1.5,8.77h0.05
		c0.91-1.59,2.41-4.13,5.22-8.77l1.48,0.64l-7.11,10.95H118.67z M134.47,377.77c-1.5,0.82-3,1.14-4.45,1.14
		c-2.41,0-3.55-1.73-3.55-4.22c0-3.41,2.84-7.68,6.86-7.68c1.25,0,2.68,0.73,2.68,2.59c0,2.73-3.86,4.46-7.59,4.23
		c-0.09,1.54,0.09,3.72,2.39,3.72c1.16,0,2.43-0.59,3.02-0.91L134.47,377.77z M134.06,369.96c0.07-0.96-0.55-1.59-1.36-1.59
		c-1.54,0-3.52,1.86-4,4.14C131.86,372.77,133.95,371.32,134.06,369.96 M136.88,378.63l3.14-16.7h1.84l-3.14,16.7H136.88z
		 M152.45,371.96c0,3.59-2.39,6.95-5.75,6.95c-3.27,0-4.61-2.77-4.61-4.99c0-3.37,2.3-6.91,6.13-6.91
		C150.52,367,152.45,368.96,152.45,371.96 M144.04,373.91c0,0.95,0.32,3.63,2.7,3.63c2.23,0,3.75-2.68,3.75-5.54
		c0-0.82-0.09-3.64-2.46-3.64C145.49,368.37,144.04,371.19,144.04,373.91 M157.06,369.73l0.05,0.05c0.91-1.46,2.48-2.78,4.27-2.78
		c2.39,0,3.27,2.09,3.27,4.37c0,2.99-2.27,7.54-6.22,7.54c-1.07,0-2.11-0.41-2.86-1.18l-1.21,6.59h-1.84l3.18-17.04h1.84
		L157.06,369.73z M158.7,377.54c1.45,0,4-2.36,4-6.31c0-1.09-0.36-2.68-2.09-2.68s-4.09,2.5-4.73,7.73
		C156.54,377.36,157.59,377.54,158.7,377.54 M169.34,369.91l0.05,0.05c0.82-1.34,2.54-2.96,4.55-2.96c1.88,0,2.39,1.23,2.25,2.91
		l0.04,0.05c0.61-1.2,2.52-2.96,4.25-2.96c2.36,0,3.04,1.14,2.32,5.09l-1.2,6.54h-1.82l1.21-6.52c0.45-2.52,0.45-3.62-0.98-3.62
		c-1.14,0-3.75,1.62-4.55,6l-0.75,4.13h-1.82l1.2-6.52c0.46-2.52,0.46-3.62-0.98-3.62c-1.14,0-3.75,1.62-4.55,6l-0.75,4.13H166
		l2.14-11.36h1.77L169.34,369.91z M192.84,377.77c-1.5,0.82-3,1.14-4.46,1.14c-2.41,0-3.54-1.73-3.54-4.22
		c0-3.41,2.84-7.68,6.86-7.68c1.25,0,2.68,0.73,2.68,2.59c0,2.73-3.86,4.46-7.59,4.23c-0.09,1.54,0.09,3.72,2.39,3.72
		c1.16,0,2.43-0.59,3.02-0.91L192.84,377.77z M192.43,369.96c0.07-0.96-0.55-1.59-1.36-1.59c-1.55,0-3.52,1.86-4,4.14
		C190.22,372.77,192.32,371.32,192.43,369.96 M198.59,370l0.04,0.04c0.96-1.32,2.39-3.05,5.13-3.05c1.3,0,2.46,0.93,2.46,2.32
		c0,0.8-0.14,1.38-0.3,2.14l-1.43,7.18h-1.84l1.43-6.93c0.11-0.45,0.23-1.25,0.23-1.8c0-0.84-0.5-1.41-1.59-1.41
		c-1.86,0-4.31,2.73-4.86,5.77l-0.8,4.36h-1.82l2.13-11.36h1.77L198.59,370z M213.39,378.36c-0.78,0.32-1.59,0.54-2.3,0.54
		c-2.05,0-2.73-1.43-2.3-3.59l1.32-6.84h-1.43l0.25-1.21h1.43l0.5-2.73l1.98-0.68l-0.64,3.41h2.68l-0.25,1.21h-2.68l-1.34,7.04
		c-0.25,1.3,0.02,2.02,0.88,2.02c0.61,0,1.25-0.18,1.71-0.32L213.39,378.36z M224.41,378.63h-1.84l0.41-2.13l-0.04-0.05
		c-0.5,0.73-2.25,2.45-4.2,2.45c-1.75,0-3.19-1.73-3.19-4.18c0-4.14,2.84-7.73,6.34-7.73c0.96,0,2.05,0.59,2.52,1.55h0.04l0.23-1.27
		h1.86L224.41,378.63z M221.84,368.37c-2.32,0-4.34,2.36-4.34,6.27c0,1.73,0.7,2.73,1.91,2.73c1.84,0,4.27-2.5,4.62-6.64
		C224.16,369.68,223.12,368.37,221.84,368.37 M227.71,378.63l3.13-16.7h1.84l-3.14,16.7H227.71z M248.09,378.63h-1.84l0.41-2.13
		l-0.04-0.05c-0.5,0.73-2.25,2.45-4.2,2.45c-1.75,0-3.18-1.73-3.18-4.18c0-4.14,2.84-7.73,6.34-7.73c0.96,0,2.05,0.59,2.52,1.55
		h0.05l1.23-6.61h1.84L248.09,378.63z M245.52,368.37c-2.32,0-4.34,2.36-4.34,6.27c0,1.73,0.7,2.73,1.91,2.73
		c1.84,0,4.27-2.5,4.61-6.64C247.84,369.68,246.79,368.37,245.52,368.37 M255.37,367.27l-2.14,11.36h-1.84l2.14-11.36H255.37z
		 M253.92,363.84c0-0.88,0.72-1.52,1.43-1.52c0.75,0,0.98,0.64,0.98,0.98c0,0.68-0.54,1.61-1.45,1.61
		C253.96,364.91,253.92,364.14,253.92,363.84 M263.27,369.09c-0.57-0.46-1.34-0.82-2.07-0.82c-0.68,0-1.52,0.55-1.52,1.32
		c0,0.98,0.77,1.57,1.7,2.64c0.98,1.11,1.84,2.13,1.84,3.45c0,1.64-1.52,3.23-4.08,3.23c-1.16,0-2.27-0.41-3.16-1.04l0.8-1.32
		c0.79,0.64,1.59,1,2.5,1c0.95,0,2-0.59,2-1.63c0-1.14-0.48-1.5-1.66-2.82c-0.75-0.84-1.88-1.82-1.88-3.27
		c0-1.32,1.18-2.82,3.58-2.82c1.32,0,2.23,0.55,2.82,0.96L263.27,369.09z M274.3,378.63h-1.84l0.41-2.13l-0.05-0.05
		c-0.5,0.73-2.25,2.45-4.2,2.45c-1.75,0-3.18-1.73-3.18-4.18c0-4.14,2.84-7.73,6.34-7.73c0.95,0,2.04,0.59,2.52,1.55h0.04l0.23-1.27
		h1.86L274.3,378.63z M271.73,368.37c-2.32,0-4.34,2.36-4.34,6.27c0,1.73,0.71,2.73,1.91,2.73c1.84,0,4.27-2.5,4.62-6.64
		C274.05,369.68,273.01,368.37,271.73,368.37 M280.76,361.94h1.79l-1.45,7.79l0.05,0.05c0.91-1.46,2.48-2.78,4.27-2.78
		c2.39,0,3.27,2.09,3.27,4.37c0,2.99-2.27,7.54-6.23,7.54c-1.07,0-2.11-0.41-2.86-1.18l-0.16,0.91h-1.84L280.76,361.94z
		 M282.73,377.54c1.45,0,4-2.36,4-6.31c0-1.09-0.36-2.68-2.09-2.68c-1.73,0-4.09,2.5-4.73,7.73
		C280.57,377.36,281.62,377.54,282.73,377.54 M294,367.27l-2.13,11.36h-1.84l2.14-11.36H294z M292.55,363.84
		c0-0.88,0.73-1.52,1.43-1.52c0.75,0,0.98,0.64,0.98,0.98c0,0.68-0.55,1.61-1.45,1.61C292.6,364.91,292.55,364.14,292.55,363.84
		 M295.14,378.63l3.14-16.7h1.84l-3.14,16.7H295.14z M304.24,367.27l-2.14,11.36h-1.84l2.13-11.36H304.24z M302.78,363.84
		c0-0.88,0.72-1.52,1.43-1.52c0.75,0,0.98,0.64,0.98,0.98c0,0.68-0.55,1.61-1.46,1.61C302.83,364.91,302.78,364.14,302.78,363.84
		 M310.87,378.36c-0.77,0.32-1.59,0.54-2.29,0.54c-2.05,0-2.73-1.43-2.3-3.59l1.32-6.84h-1.43l0.25-1.21h1.43l0.5-2.73l1.98-0.68
		l-0.64,3.41h2.68l-0.25,1.21h-2.69l-1.34,7.04c-0.25,1.3,0.02,2.02,0.88,2.02c0.62,0,1.25-0.18,1.71-0.32L310.87,378.36z
		 M316.92,367.27l-2.14,11.36h-1.84l2.14-11.36H316.92z M315.46,363.84c0-0.88,0.73-1.52,1.43-1.52c0.75,0,0.98,0.64,0.98,0.98
		c0,0.68-0.55,1.61-1.46,1.61C315.51,364.91,315.46,364.14,315.46,363.84 M326.17,377.77c-1.5,0.82-3,1.14-4.46,1.14
		c-2.41,0-3.54-1.73-3.54-4.22c0-3.41,2.84-7.68,6.86-7.68c1.25,0,2.68,0.73,2.68,2.59c0,2.73-3.86,4.46-7.59,4.23
		c-0.09,1.54,0.09,3.72,2.38,3.72c1.16,0,2.44-0.59,3.03-0.91L326.17,377.77z M325.76,369.96c0.07-0.96-0.55-1.59-1.36-1.59
		c-1.55,0-3.52,1.86-4,4.14C323.55,372.77,325.64,371.32,325.76,369.96 M335.35,369.09c-0.57-0.46-1.34-0.82-2.07-0.82
		c-0.68,0-1.52,0.55-1.52,1.32c0,0.98,0.77,1.57,1.7,2.64c0.98,1.11,1.84,2.13,1.84,3.45c0,1.64-1.52,3.23-4.09,3.23
		c-1.16,0-2.27-0.41-3.16-1.04l0.79-1.32c0.8,0.64,1.59,1,2.5,1c0.96,0,2-0.59,2-1.63c0-1.14-0.48-1.5-1.66-2.82
		c-0.75-0.84-1.89-1.82-1.89-3.27c0-1.32,1.18-2.82,3.59-2.82c1.32,0,2.23,0.55,2.82,0.96L335.35,369.09z M55.75,297.46l8.63-46.28
		H49.69l1.29-6.74h39.09l-1.29,6.74H74l-8.63,46.28H55.75z M100.21,266.71l0.45,0.15c5.76-6.36,10.53-8.18,15.45-8.18
		c5.08,0,7.96,2.42,7.96,8.71c0,2.19-0.3,4.92-0.99,8.25l-4.47,21.81h-9.02l4.4-21.74c0.45-2.2,0.68-3.86,0.68-5.23
		c0.23-4.09-1.59-5.15-4.09-5.15c-4.32,0-11.44,8.71-13.41,19.47l-2.27,12.65h-9.09l10.45-55.67h9.09L100.21,266.71z M155.81,293.07
		c-6.13,4.54-12.35,5.3-16.44,5.3c-7.04,0-11.74-5.76-11.74-14.85c0-10.6,8.41-24.84,23.33-24.84c4.24,0,9.54,2.42,9.54,7.88
		c0,9.85-14.92,15-23.25,15.3c-0.45,3.03-0.15,9.62,6.44,9.77c2.42,0.07,6.06-0.99,9.55-3.56L155.81,293.07z M152.09,267.92
		c0.15-2.42-1.06-3.48-3.48-3.48c-4.09,0-8.48,5.15-10.53,12.12C145.2,275.95,151.79,272.77,152.09,267.92 M212.77,244.44
		l8.03,53.02h-10.15L208.9,283h-16.59l-7.65,14.46h-8.63l29.39-53.02H212.77z M208.14,276.94c-0.76-6.51-1.59-13.1-1.82-21.74h-0.15
		c-3.79,8.64-7.2,15.23-10.61,21.74H208.14z M239.66,266.11l0.15,0.15l2.42-2.95c1.36-1.59,3.94-4.62,6.74-4.62
		c2.04,0,4.01,1.21,5.15,2.73l-4.85,7.12c-0.91-0.3-1.74-0.76-3.56-0.76c-3.18,0-6.74,2.8-8.25,10.98l-3.56,18.71h-9.01l7.04-37.87
		h9.01L239.66,266.11z M278.3,294.13c-4.39,3.03-7.65,4.24-11.89,4.24c-9.84,0-15.91-6.97-15.91-16.66
		c0-10.91,8.18-23.03,21.36-23.03c4.24,0,7.73,1.66,10.15,4.39l-3.78,4.69c-1.52-0.91-3.48-2.35-6.67-2.35
		c-6.21,0-11.36,6.59-11.36,16.13c0,5.6,2.8,10.07,7.73,10.07c3.94,0,5.53-1.59,7.5-2.65L278.3,294.13z M289.09,294.32
		c0,2.24-1.81,4.05-4.05,4.05c-2.24,0-4.05-1.81-4.05-4.05c0-2.24,1.81-4.05,4.05-4.05C287.28,290.27,289.09,292.09,289.09,294.32
		 M285.04,290.88c-1.9,0-3.44,1.54-3.44,3.44s1.54,3.44,3.44,3.44s3.44-1.54,3.44-3.44S286.95,290.88,285.04,290.88 M283.39,296.34
		h0.78v-1.79h0.86l1.34,1.87l0.8-0.19l-1.42-1.85c0.55-0.26,0.96-0.62,0.96-1.25c0-0.75-0.74-1.12-1.68-1.12h-1.64V296.34z
		 M284.17,292.44h0.71c0.52,0,1,0.2,1,0.73c0,0.37-0.21,0.94-1.23,0.94h-0.47V292.44z"/>
</g>
</svg>
