<?xml version="1.0" encoding="utf-8"?>
<!-- Generator: Adobe Illustrator 25.0.1, SVG Export Plug-In . SVG Version: 6.00 Build 0)  -->
<svg version="1.1" id="Layer_1" xmlns="http://www.w3.org/2000/svg" xmlns:xlink="http://www.w3.org/1999/xlink" x="0px" y="0px"
	 viewBox="0 0 373.74 268.16" style="enable-background:new 0 0 373.74 268.16;" xml:space="preserve">
<style type="text/css">
	.st0{clip-path:url(#SVGID_2_);fill:url(#SVGID_3_);}
	.st1{fill:#231F20;}
</style>
<g>
	<g>
		<defs>
			<path id="SVGID_1_" d="M109.3,83.54c-6.63,12.72-10.83,25.78-1.5,26.96c5.79,0.73,20.2-10.47,26.15-15.86
				c13.56-12.28,28.66-16.74,35.74-17.44l-1.59-0.6c-10.67,0.03-22.14,3.7-32,11.09c11.3-9.89,25.92-14.8,39.56-13.97l1.5-0.95
				c2.05,0.23,4.4,0.73,6.51,1.27l1.43-1.18c-13.64-7.88-34.04-0.58-41.72,2.25c-1.48,0.55-2.34,0.15-1.93-0.99
				c10.2-28.66,35.88-47.49,53.42-47.49c14.13,0,14.91,13.28,11.55,35.43c-5.91,38.95,12.9,62.59,44.1,62.59
				c31.38,0,60.16-37.8,77.25-59.18c0.23-0.16-0.11-0.72,0.23-0.82c0.69-1.22,2.73-2.39,2.6-3.62
				c-10.73,12.11-21.07,24.5-32.66,36.02l-0.15-0.17c3.21-3.56,6.72-7.12,9.71-10.59c1.27-1.47,2.73-2.87,3.4-4.55
				c-0.14,0.29-0.43,0.47-0.64,0.71c3.95-4.85,6-8.14,10.34-12.88c0.09-0.84,0.14-0.84,0.09-1.57c4.18-4.72,8.67-10.09,10.54-15.83
				c-3.17,3.23-6.51,7.21-9.75,9.85c2.33-3.6,4.61-7.16,7.43-10.76c-1.1,0.66-1.59,1.75-2.41,2.6c-0.04-0.48,1.42-1.52,0.65-1.68
				c-0.14-0.03-0.96,0.7-1.52,1.26c-1.38,1.38-3.37,4.49-4.29,4.91c1.41-1.96,2.85-3.79,3.55-5.74
				c-3.81,4.65-8.54,10.21-12.96,14.36c1.68-1.92,3.64-3.92,5.24-6.07c1.63-2.16,3.48-4.27,4.38-6.48
				c-5.17,6.35-13.23,16.5-18.78,21.5c-0.3,0.28-0.93,0.46-1.13,0.33c-0.52,0.42-0.59,0.95-1.16,0.89
				c4.8-5.16,9.46-10.44,13.83-15.88c-2.01,1.46-2.92,3.66-5.04,5.05c0.8-1.41,2.85-2.85,2.88-4.25c-1.71,2.45-0.01-0.74,0.12-1.38
				c-0.95,1.13-1.91,2.23-2.87,3.3l0.34-0.13c-14.22,16.4-38.62,41.7-58.63,41.7c-27.36,0-25.68-28.42-23.82-42.37
				c6.24-46.92-7.88-60.34-26.67-60.34C183.24,2.85,143.25,18.42,109.3,83.54 M361.5,3.85c-0.31,0.25-0.65,0.79-0.75,1.06
				c0.09,0.34-0.57,0.78-0.37,1.17c-2.81,3.48-16.14,20.02-16.87,20.9c-0.11,0.68-1.74,4.01-0.07,1.43c0.03,1.45-2.02,3-2.81,4.48
				c2.13-1.51,3.02-3.81,5.03-5.39c-4.04,5.4-8.34,10.65-12.77,15.8l0.29,0.21c0.24-0.02,0.88-0.26,1.1-0.47
				c5.54-5.37,13.51-16.14,18.6-22.87c-0.86,2.31-2.7,4.56-4.29,6.85c-1.58,2.27-3.53,4.41-5.2,6.45
				c4.42-4.45,9.1-10.35,12.87-15.28c-0.66,2.03-2.07,3.97-3.47,6.05c0.94-0.46,2.88-3.76,4.26-5.22c0.55-0.6,1.36-1.39,1.51-1.36
				c0.8,0.14-0.66,1.26-0.61,1.75c0.82-0.9,1.28-2.05,2.4-2.77c-2.78,3.81-5.02,7.58-7.29,11.38c2.8-2.45,5.63-5.92,8.39-9.04
				c17.02-15.51,3-16.11,2.88-16.12c-0.05,0-0.11-0.01-0.16-0.01C363.18,2.85,361.88,3.58,361.5,3.85"/>
		</defs>
		<clipPath id="SVGID_2_">
			<use xlink:href="#SVGID_1_"  style="overflow:visible;"/>
		</clipPath>
		
			<linearGradient id="SVGID_3_" gradientUnits="userSpaceOnUse" x1="-80.135" y1="418.587" x2="-76.2303" y2="418.587" gradientTransform="matrix(76.5741 0 0 -76.5741 6230.792 32116.6602)">
			<stop  offset="0" style="stop-color:#F47B20"/>
			<stop  offset="0.8" style="stop-color:#FFD900"/>
			<stop  offset="1" style="stop-color:#FFD900"/>
		</linearGradient>
		<rect x="98.47" y="2.85" class="st0" width="279.99" height="121.8"/>
	</g>
	<g>
		<path class="st1" d="M13.64,217.05H8.57l-1.18,6.22h4.98l-0.27,1.48H7.14l-1.27,6.73H3.89l2.98-15.91h7.04L13.64,217.05z
			 M23.71,224.8c0,3.59-2.39,6.95-5.75,6.95c-3.27,0-4.61-2.77-4.61-5c0-3.36,2.3-6.91,6.13-6.91
			C21.77,219.85,23.71,221.8,23.71,224.8 M15.3,226.75c0,0.96,0.32,3.64,2.71,3.64c2.23,0,3.75-2.68,3.75-5.54
			c0-0.82-0.09-3.64-2.46-3.64C16.75,221.21,15.3,224.03,15.3,226.75 M28.57,221.99l0.04,0.04c1.14-1.41,1.77-2.18,3.07-2.18
			c0.62,0,1.07,0.41,1.48,0.78l-0.95,1.27c-0.18-0.09-0.61-0.23-1.23-0.23c-1.27,0-2.48,1.36-3.14,4.79l-0.96,5.02h-1.84l2.14-11.36
			h1.8L28.57,221.99z M42.21,222.57l0.05,0.05c0.91-1.45,2.48-2.77,4.27-2.77c2.39,0,3.27,2.09,3.27,4.36c0,3-2.27,7.54-6.22,7.54
			c-1.07,0-2.11-0.41-2.87-1.18l-1.2,6.59h-1.84l3.18-17.04h1.84L42.21,222.57z M43.84,230.39c1.46,0,4-2.36,4-6.31
			c0-1.09-0.36-2.68-2.09-2.68c-1.73,0-4.09,2.5-4.72,7.72C41.69,230.21,42.73,230.39,43.84,230.39 M59.25,230.62
			c-1.5,0.82-3,1.13-4.46,1.13c-2.41,0-3.54-1.73-3.54-4.22c0-3.41,2.84-7.68,6.86-7.68c1.25,0,2.68,0.73,2.68,2.59
			c0,2.73-3.86,4.46-7.59,4.22c-0.09,1.55,0.09,3.73,2.39,3.73c1.16,0,2.43-0.59,3.02-0.91L59.25,230.62z M58.84,222.8
			c0.07-0.96-0.55-1.59-1.36-1.59c-1.55,0-3.52,1.87-4,4.14C56.64,225.62,58.73,224.16,58.84,222.8 M72.12,224.8
			c0,3.59-2.38,6.95-5.75,6.95c-3.27,0-4.61-2.77-4.61-5c0-3.36,2.3-6.91,6.13-6.91C70.19,219.85,72.12,221.8,72.12,224.8
			 M63.71,226.75c0,0.96,0.32,3.64,2.71,3.64c2.23,0,3.75-2.68,3.75-5.54c0-0.82-0.09-3.64-2.46-3.64
			C65.17,221.21,63.71,224.03,63.71,226.75 M76.74,222.57l0.04,0.05c0.91-1.45,2.48-2.77,4.28-2.77c2.38,0,3.27,2.09,3.27,4.36
			c0,3-2.27,7.54-6.22,7.54c-1.07,0-2.11-0.41-2.86-1.18l-1.21,6.59h-1.84l3.18-17.04h1.84L76.74,222.57z M78.37,230.39
			c1.46,0,4-2.36,4-6.31c0-1.09-0.36-2.68-2.09-2.68c-1.73,0-4.09,2.5-4.72,7.72C76.21,230.21,77.26,230.39,78.37,230.39
			 M85.67,231.48l3.13-16.7h1.84l-3.14,16.7H85.67z M98.9,230.62c-1.5,0.82-3,1.13-4.46,1.13c-2.41,0-3.54-1.73-3.54-4.22
			c0-3.41,2.84-7.68,6.86-7.68c1.25,0,2.68,0.73,2.68,2.59c0,2.73-3.86,4.46-7.59,4.22c-0.09,1.55,0.09,3.73,2.39,3.73
			c1.16,0,2.43-0.59,3.02-0.91L98.9,230.62z M98.49,222.8c0.07-0.96-0.55-1.59-1.36-1.59c-1.55,0-3.52,1.87-4,4.14
			C96.28,225.62,98.37,224.16,98.49,222.8 M109.88,219.9c0.32,2.95,0.86,6.76,0.82,8.81l0.04,0.05c0.36-1.23,1.68-3.81,4.59-8.63
			h1.34c0.5,2.84,1.2,6.95,1.27,8.68h0.04c1.02-2.36,1.57-3.59,4.59-8.9l1.54,0.47l-6.18,11.11h-1.14c-0.5-2.8-1.48-7.45-1.39-9.27
			l-0.05-0.05c-0.55,1.86-3.27,6.52-4.86,9.32h-1.02l-1.5-11.36L109.88,219.9z M128.01,220.12l-2.14,11.36h-1.84l2.13-11.36H128.01z
			 M126.56,216.69c0-0.88,0.72-1.52,1.43-1.52c0.75,0,0.98,0.64,0.98,0.98c0,0.68-0.55,1.61-1.45,1.61
			C126.6,217.76,126.56,216.99,126.56,216.69 M134.65,231.2c-0.77,0.32-1.59,0.55-2.3,0.55c-2.05,0-2.73-1.43-2.3-3.59l1.32-6.84
			h-1.43l0.25-1.2h1.43l0.5-2.73l1.98-0.68l-0.64,3.4h2.68l-0.25,1.2h-2.68l-1.34,7.05c-0.25,1.29,0.02,2.02,0.89,2.02
			c0.61,0,1.25-0.18,1.7-0.32L134.65,231.2z M140.06,222.84l0.05,0.05c0.95-1.32,2.38-3.05,5.13-3.05c1.3,0,2.45,0.93,2.45,2.32
			c0,0.8-0.14,1.39-0.29,2.14l-1.43,7.18h-1.84l1.43-6.93c0.11-0.45,0.23-1.25,0.23-1.8c0-0.84-0.5-1.41-1.59-1.41
			c-1.86,0-4.31,2.73-4.86,5.77l-0.8,4.37h-1.82l3.14-16.7h1.82L140.06,222.84z M159.65,220.12l-2.14,11.36h-1.84l2.13-11.36H159.65
			z M158.2,216.69c0-0.88,0.73-1.52,1.43-1.52c0.75,0,0.98,0.64,0.98,0.98c0,0.68-0.55,1.61-1.45,1.61
			C158.24,217.76,158.2,216.99,158.2,216.69 M164.13,222.84l0.04,0.05c0.96-1.32,2.39-3.05,5.13-3.05c1.3,0,2.46,0.93,2.46,2.32
			c0,0.8-0.14,1.39-0.3,2.14l-1.43,7.18h-1.84l1.43-6.93c0.11-0.45,0.23-1.25,0.23-1.8c0-0.84-0.5-1.41-1.59-1.41
			c-1.86,0-4.31,2.73-4.86,5.77l-0.8,4.37h-1.82l2.13-11.36h1.77L164.13,222.84z M178.93,231.2c-0.77,0.32-1.59,0.55-2.3,0.55
			c-2.05,0-2.73-1.43-2.29-3.59l1.32-6.84h-1.43l0.25-1.2h1.43l0.5-2.73l1.98-0.68l-0.64,3.4h2.68l-0.25,1.2h-2.68l-1.34,7.05
			c-0.25,1.29,0.02,2.02,0.89,2.02c0.61,0,1.25-0.18,1.71-0.32L178.93,231.2z M189.11,230.62c-1.5,0.82-3,1.13-4.46,1.13
			c-2.4,0-3.54-1.73-3.54-4.22c0-3.41,2.83-7.68,6.86-7.68c1.25,0,2.69,0.73,2.69,2.59c0,2.73-3.87,4.46-7.59,4.22
			c-0.09,1.55,0.09,3.73,2.39,3.73c1.16,0,2.43-0.59,3.02-0.91L189.11,230.62z M188.7,222.8c0.07-0.96-0.55-1.59-1.37-1.59
			c-1.54,0-3.52,1.87-3.99,4.14C186.49,225.62,188.59,224.16,188.7,222.8 M191.52,231.48l3.14-16.7h1.84l-3.14,16.7H191.52z
			 M196.63,231.48l3.14-16.7h1.84l-3.14,16.7H196.63z M209.86,230.62c-1.5,0.82-3,1.13-4.45,1.13c-2.41,0-3.55-1.73-3.55-4.22
			c0-3.41,2.84-7.68,6.86-7.68c1.25,0,2.68,0.73,2.68,2.59c0,2.73-3.87,4.46-7.59,4.22c-0.09,1.55,0.09,3.73,2.39,3.73
			c1.16,0,2.43-0.59,3.02-0.91L209.86,230.62z M209.45,222.8c0.07-0.96-0.55-1.59-1.36-1.59c-1.54,0-3.52,1.87-4,4.14
			C207.24,225.62,209.34,224.16,209.45,222.8 M220.29,230.62c-1.23,0.72-2.41,1.13-3.64,1.13c-3.59,0-4.3-3.13-4.3-4.95
			c0-2.36,1.84-6.95,6.93-6.95c0.96,0,1.91,0.37,2.48,0.91l-0.82,1.09c-0.29-0.22-1.34-0.64-2.16-0.64c-2.09,0-4.48,2.18-4.48,5.45
			c0,1.18,0.32,3.68,2.77,3.68c0.91,0,1.8-0.41,2.57-0.86L220.29,230.62z M227.45,231.2c-0.77,0.32-1.59,0.55-2.3,0.55
			c-2.04,0-2.72-1.43-2.29-3.59l1.32-6.84h-1.43l0.25-1.2h1.43l0.5-2.73l1.98-0.68l-0.64,3.4h2.68l-0.25,1.2h-2.68l-1.34,7.05
			c-0.25,1.29,0.02,2.02,0.89,2.02c0.61,0,1.25-0.18,1.71-0.32L227.45,231.2z M237.36,228.03l-0.05-0.04
			c-0.93,2.5-3.27,3.77-5.18,3.77c-1.32,0-2.32-1.02-2.32-2.41c0-0.8,0.07-1.3,0.23-2.05l1.43-7.18h1.84l-1.43,6.93
			c-0.11,0.46-0.21,1.25-0.21,1.79c0,0.96,0.59,1.41,1.59,1.41c1.77,0,4.18-3.34,4.7-6.27l0.71-3.87h1.82l-2.14,11.36h-1.77
			L237.36,228.03z M250.68,231.48h-1.84l0.41-2.14l-0.04-0.05c-0.5,0.73-2.25,2.45-4.21,2.45c-1.75,0-3.18-1.73-3.18-4.18
			c0-4.13,2.84-7.72,6.34-7.72c0.96,0,2.05,0.59,2.53,1.55h0.04l0.23-1.27h1.86L250.68,231.48z M248.11,221.21
			c-2.32,0-4.33,2.37-4.33,6.27c0,1.73,0.7,2.73,1.91,2.73c1.84,0,4.28-2.5,4.61-6.63C250.43,222.53,249.39,221.21,248.11,221.21
			 M253.98,231.48l3.14-16.7h1.84l-3.14,16.7H253.98z M12.75,259.63h-1.84l0.41-2.13l-0.05-0.05c-0.5,0.73-2.25,2.45-4.2,2.45
			c-1.75,0-3.18-1.73-3.18-4.18c0-4.14,2.84-7.73,6.34-7.73c0.95,0,2.04,0.59,2.52,1.55h0.04l0.23-1.27h1.87L12.75,259.63z
			 M10.18,249.36c-2.32,0-4.34,2.36-4.34,6.27c0,1.73,0.7,2.73,1.91,2.73c1.84,0,4.27-2.5,4.61-6.64
			C12.5,250.68,11.45,249.36,10.18,249.36 M19.39,251l0.04,0.04c0.96-1.32,2.39-3.05,5.14-3.05c1.29,0,2.45,0.93,2.45,2.32
			c0,0.8-0.14,1.38-0.3,2.14l-1.43,7.18h-1.84l1.43-6.93c0.11-0.45,0.23-1.25,0.23-1.8c0-0.84-0.5-1.41-1.59-1.41
			c-1.86,0-4.32,2.73-4.86,5.77l-0.8,4.36h-1.82l2.14-11.36h1.78L19.39,251z M37.63,259.63H35.8l0.41-2.13l-0.05-0.05
			c-0.5,0.73-2.25,2.45-4.2,2.45c-1.75,0-3.18-1.73-3.18-4.18c0-4.14,2.84-7.73,6.34-7.73c0.96,0,2.04,0.59,2.52,1.55h0.05
			l1.23-6.61h1.84L37.63,259.63z M35.07,249.36c-2.32,0-4.34,2.36-4.34,6.27c0,1.73,0.7,2.73,1.91,2.73c1.84,0,4.27-2.5,4.61-6.64
			C37.39,250.68,36.34,249.36,35.07,249.36 M56.21,259.63h-1.84l0.41-2.13l-0.05-0.05c-0.5,0.73-2.25,2.45-4.2,2.45
			c-1.75,0-3.18-1.73-3.18-4.18c0-4.14,2.84-7.73,6.34-7.73c0.95,0,2.04,0.59,2.52,1.55h0.04l1.23-6.61h1.84L56.21,259.63z
			 M53.64,249.36c-2.32,0-4.34,2.36-4.34,6.27c0,1.73,0.7,2.73,1.91,2.73c1.84,0,4.27-2.5,4.62-6.64
			C55.96,250.68,54.91,249.36,53.64,249.36 M67.61,258.76c-1.5,0.82-2.99,1.14-4.45,1.14c-2.41,0-3.54-1.73-3.54-4.22
			c0-3.41,2.84-7.68,6.86-7.68c1.25,0,2.68,0.73,2.68,2.59c0,2.73-3.86,4.46-7.59,4.23c-0.09,1.54,0.09,3.72,2.39,3.72
			c1.16,0,2.43-0.59,3.02-0.91L67.61,258.76z M67.21,250.95c0.07-0.96-0.54-1.59-1.36-1.59c-1.55,0-3.52,1.86-4,4.14
			C65.01,253.77,67.1,252.31,67.21,250.95 M72.87,259.63l-2.36-11.27l1.95-0.32c0.96,5.45,1.18,6.68,1.5,8.77h0.05
			c0.91-1.59,2.41-4.13,5.22-8.77l1.48,0.64l-7.11,10.95H72.87z M88.66,258.76c-1.5,0.82-3,1.14-4.45,1.14
			c-2.41,0-3.55-1.73-3.55-4.22c0-3.41,2.84-7.68,6.86-7.68c1.25,0,2.68,0.73,2.68,2.59c0,2.73-3.86,4.46-7.59,4.23
			c-0.09,1.54,0.09,3.72,2.39,3.72c1.16,0,2.43-0.59,3.02-0.91L88.66,258.76z M88.25,250.95c0.07-0.96-0.55-1.59-1.36-1.59
			c-1.54,0-3.52,1.86-4,4.14C86.05,253.77,88.15,252.31,88.25,250.95 M91.08,259.63l3.14-16.7h1.84l-3.14,16.7H91.08z
			 M106.65,252.95c0,3.59-2.39,6.95-5.75,6.95c-3.27,0-4.61-2.77-4.61-4.99c0-3.37,2.3-6.91,6.13-6.91
			C104.71,247.99,106.65,249.95,106.65,252.95 M98.24,254.91c0,0.95,0.32,3.63,2.7,3.63c2.23,0,3.75-2.68,3.75-5.54
			c0-0.82-0.09-3.64-2.46-3.64C99.69,249.36,98.24,252.18,98.24,254.91 M111.26,250.72l0.05,0.05c0.91-1.46,2.48-2.78,4.27-2.78
			c2.39,0,3.27,2.09,3.27,4.37c0,2.99-2.27,7.54-6.22,7.54c-1.07,0-2.11-0.41-2.86-1.18l-1.21,6.59h-1.84l3.18-17.04h1.84
			L111.26,250.72z M112.9,258.54c1.45,0,4-2.36,4-6.31c0-1.09-0.36-2.68-2.09-2.68s-4.09,2.5-4.73,7.73
			C110.74,258.36,111.78,258.54,112.9,258.54 M123.53,250.9l0.05,0.05c0.82-1.34,2.54-2.96,4.55-2.96c1.88,0,2.39,1.23,2.25,2.91
			l0.04,0.05c0.61-1.2,2.52-2.96,4.25-2.96c2.36,0,3.04,1.14,2.32,5.09l-1.2,6.54h-1.82l1.21-6.52c0.45-2.52,0.45-3.62-0.98-3.62
			c-1.14,0-3.75,1.62-4.55,6l-0.75,4.13h-1.82l1.2-6.52c0.46-2.52,0.46-3.62-0.98-3.62c-1.14,0-3.75,1.62-4.55,6l-0.75,4.13h-1.82
			l2.14-11.36h1.77L123.53,250.9z M147.04,258.76c-1.5,0.82-3,1.14-4.46,1.14c-2.41,0-3.54-1.73-3.54-4.22
			c0-3.41,2.84-7.68,6.86-7.68c1.25,0,2.68,0.73,2.68,2.59c0,2.73-3.86,4.46-7.59,4.23c-0.09,1.54,0.09,3.72,2.39,3.72
			c1.16,0,2.43-0.59,3.02-0.91L147.04,258.76z M146.63,250.95c0.07-0.96-0.55-1.59-1.36-1.59c-1.55,0-3.52,1.86-4,4.14
			C144.42,253.77,146.51,252.31,146.63,250.95 M152.79,251l0.04,0.04c0.96-1.32,2.39-3.05,5.13-3.05c1.3,0,2.46,0.93,2.46,2.32
			c0,0.8-0.14,1.38-0.3,2.14l-1.43,7.18h-1.84l1.43-6.93c0.11-0.45,0.23-1.25,0.23-1.8c0-0.84-0.5-1.41-1.59-1.41
			c-1.86,0-4.31,2.73-4.86,5.77l-0.8,4.36h-1.82l2.13-11.36h1.77L152.79,251z M167.59,259.36c-0.78,0.32-1.59,0.54-2.3,0.54
			c-2.05,0-2.73-1.43-2.3-3.59l1.32-6.84h-1.43l0.25-1.21h1.43l0.5-2.73l1.98-0.68l-0.64,3.41h2.68l-0.25,1.21h-2.68l-1.34,7.04
			c-0.25,1.3,0.02,2.02,0.88,2.02c0.61,0,1.25-0.18,1.71-0.32L167.59,259.36z M178.61,259.63h-1.84l0.41-2.13l-0.04-0.05
			c-0.5,0.73-2.25,2.45-4.2,2.45c-1.75,0-3.19-1.73-3.19-4.18c0-4.14,2.84-7.73,6.34-7.73c0.96,0,2.05,0.59,2.52,1.55h0.04
			l0.23-1.27h1.86L178.61,259.63z M176.04,249.36c-2.32,0-4.34,2.36-4.34,6.27c0,1.73,0.7,2.73,1.91,2.73c1.84,0,4.27-2.5,4.62-6.64
			C178.36,250.68,177.31,249.36,176.04,249.36 M181.9,259.63l3.13-16.7h1.84l-3.14,16.7H181.9z M202.29,259.63h-1.84l0.41-2.13
			l-0.04-0.05c-0.5,0.73-2.25,2.45-4.2,2.45c-1.75,0-3.18-1.73-3.18-4.18c0-4.14,2.84-7.73,6.34-7.73c0.96,0,2.05,0.59,2.52,1.55
			h0.05l1.23-6.61h1.84L202.29,259.63z M199.72,249.36c-2.32,0-4.34,2.36-4.34,6.27c0,1.73,0.7,2.73,1.91,2.73
			c1.84,0,4.27-2.5,4.61-6.64C202.04,250.68,200.99,249.36,199.72,249.36 M209.57,248.27l-2.14,11.36h-1.84l2.14-11.36H209.57z
			 M208.11,244.84c0-0.88,0.72-1.52,1.43-1.52c0.75,0,0.98,0.64,0.98,0.98c0,0.68-0.54,1.61-1.45,1.61
			C208.16,245.91,208.11,245.13,208.11,244.84 M217.47,250.09c-0.57-0.46-1.34-0.82-2.07-0.82c-0.68,0-1.52,0.55-1.52,1.32
			c0,0.98,0.77,1.57,1.7,2.64c0.98,1.11,1.84,2.13,1.84,3.45c0,1.64-1.52,3.23-4.08,3.23c-1.16,0-2.27-0.41-3.16-1.04l0.8-1.32
			c0.79,0.64,1.59,1,2.5,1c0.95,0,2-0.59,2-1.63c0-1.14-0.48-1.5-1.66-2.82c-0.75-0.84-1.88-1.82-1.88-3.27
			c0-1.32,1.18-2.82,3.58-2.82c1.32,0,2.23,0.55,2.82,0.96L217.47,250.09z M228.5,259.63h-1.84l0.41-2.13l-0.05-0.05
			c-0.5,0.73-2.25,2.45-4.2,2.45c-1.75,0-3.18-1.73-3.18-4.18c0-4.14,2.84-7.73,6.34-7.73c0.95,0,2.04,0.59,2.52,1.55h0.04
			l0.23-1.27h1.86L228.5,259.63z M225.93,249.36c-2.32,0-4.34,2.36-4.34,6.27c0,1.73,0.71,2.73,1.91,2.73c1.84,0,4.27-2.5,4.62-6.64
			C228.25,250.68,227.2,249.36,225.93,249.36 M234.95,242.93h1.79l-1.45,7.79l0.05,0.05c0.91-1.46,2.48-2.78,4.27-2.78
			c2.39,0,3.27,2.09,3.27,4.37c0,2.99-2.27,7.54-6.23,7.54c-1.07,0-2.11-0.41-2.86-1.18l-0.16,0.91h-1.84L234.95,242.93z
			 M236.93,258.54c1.45,0,4-2.36,4-6.31c0-1.09-0.36-2.68-2.09-2.68s-4.09,2.5-4.73,7.73C234.77,258.36,235.82,258.54,236.93,258.54
			 M248.2,248.27l-2.13,11.36h-1.84l2.14-11.36H248.2z M246.75,244.84c0-0.88,0.73-1.52,1.43-1.52c0.75,0,0.98,0.64,0.98,0.98
			c0,0.68-0.55,1.61-1.45,1.61C246.79,245.91,246.75,245.13,246.75,244.84 M249.34,259.63l3.14-16.7h1.84l-3.14,16.7H249.34z
			 M258.43,248.27l-2.14,11.36h-1.84l2.13-11.36H258.43z M256.98,244.84c0-0.88,0.72-1.52,1.43-1.52c0.75,0,0.98,0.64,0.98,0.98
			c0,0.68-0.55,1.61-1.46,1.61C257.03,245.91,256.98,245.13,256.98,244.84 M265.07,259.36c-0.77,0.32-1.59,0.54-2.29,0.54
			c-2.05,0-2.73-1.43-2.3-3.59l1.32-6.84h-1.43l0.25-1.21h1.43l0.5-2.73l1.98-0.68l-0.64,3.41h2.68l-0.25,1.21h-2.69l-1.34,7.04
			c-0.25,1.3,0.02,2.02,0.88,2.02c0.62,0,1.25-0.18,1.71-0.32L265.07,259.36z M271.12,248.27l-2.14,11.36h-1.84l2.14-11.36H271.12z
			 M269.66,244.84c0-0.88,0.73-1.52,1.43-1.52c0.75,0,0.98,0.64,0.98,0.98c0,0.68-0.55,1.61-1.46,1.61S269.66,245.13,269.66,244.84
			 M280.37,258.76c-1.5,0.82-3,1.14-4.46,1.14c-2.41,0-3.54-1.73-3.54-4.22c0-3.41,2.84-7.68,6.86-7.68c1.25,0,2.68,0.73,2.68,2.59
			c0,2.73-3.86,4.46-7.59,4.23c-0.09,1.54,0.09,3.72,2.38,3.72c1.16,0,2.44-0.59,3.03-0.91L280.37,258.76z M279.96,250.95
			c0.07-0.96-0.55-1.59-1.36-1.59c-1.55,0-3.52,1.86-4,4.14C277.75,253.77,279.84,252.31,279.96,250.95 M289.55,250.09
			c-0.57-0.46-1.34-0.82-2.07-0.82c-0.68,0-1.52,0.55-1.52,1.32c0,0.98,0.77,1.57,1.7,2.64c0.98,1.11,1.84,2.13,1.84,3.45
			c0,1.64-1.52,3.23-4.09,3.23c-1.16,0-2.27-0.41-3.16-1.04l0.79-1.32c0.8,0.64,1.59,1,2.5,1c0.96,0,2-0.59,2-1.63
			c0-1.14-0.48-1.5-1.66-2.82c-0.75-0.84-1.89-1.82-1.89-3.27c0-1.32,1.18-2.82,3.59-2.82c1.32,0,2.23,0.55,2.82,0.96L289.55,250.09
			z M9.95,178.46l8.63-46.28H3.89l1.29-6.74h39.09l-1.29,6.74H28.2l-8.63,46.28H9.95z M54.41,147.71l0.45,0.15
			c5.76-6.36,10.53-8.18,15.45-8.18c5.08,0,7.96,2.42,7.96,8.71c0,2.19-0.3,4.92-0.99,8.25l-4.47,21.81H63.8l4.4-21.74
			c0.45-2.2,0.68-3.86,0.68-5.23c0.23-4.09-1.59-5.15-4.09-5.15c-4.32,0-11.44,8.71-13.41,19.47l-2.27,12.65h-9.09l10.45-55.67h9.09
			L54.41,147.71z M110,174.07c-6.13,4.54-12.35,5.3-16.44,5.3c-7.04,0-11.74-5.76-11.74-14.85c0-10.6,8.41-24.84,23.33-24.84
			c4.24,0,9.54,2.42,9.54,7.88c0,9.85-14.92,15-23.25,15.3c-0.45,3.03-0.15,9.62,6.44,9.77c2.42,0.07,6.06-0.99,9.55-3.56
			L110,174.07z M106.29,148.92c0.15-2.42-1.06-3.48-3.48-3.48c-4.09,0-8.48,5.15-10.53,12.12
			C99.4,156.95,105.99,153.76,106.29,148.92 M166.97,125.43l8.03,53.02h-10.15l-1.74-14.46h-16.59l-7.65,14.46h-8.63l29.39-53.02
			H166.97z M162.34,157.93c-0.76-6.51-1.59-13.1-1.82-21.74h-0.15c-3.79,8.64-7.2,15.23-10.61,21.74H162.34z M193.85,147.1
			l0.15,0.15l2.42-2.95c1.36-1.59,3.94-4.62,6.74-4.62c2.04,0,4.01,1.21,5.15,2.73l-4.85,7.12c-0.91-0.3-1.74-0.76-3.56-0.76
			c-3.18,0-6.74,2.8-8.25,10.98l-3.56,18.71h-9.01l7.04-37.87h9.01L193.85,147.1z M232.49,175.13c-4.39,3.03-7.65,4.24-11.89,4.24
			c-9.84,0-15.91-6.97-15.91-16.66c0-10.91,8.18-23.03,21.36-23.03c4.24,0,7.73,1.66,10.15,4.39l-3.78,4.69
			c-1.52-0.91-3.48-2.35-6.67-2.35c-6.21,0-11.36,6.59-11.36,16.13c0,5.6,2.8,10.07,7.73,10.07c3.94,0,5.53-1.59,7.5-2.65
			L232.49,175.13z M243.29,175.32c0,2.24-1.81,4.05-4.05,4.05c-2.24,0-4.05-1.81-4.05-4.05s1.81-4.05,4.05-4.05
			C241.48,171.27,243.29,173.08,243.29,175.32 M239.24,171.87c-1.9,0-3.44,1.54-3.44,3.44s1.54,3.44,3.44,3.44
			c1.9,0,3.44-1.54,3.44-3.44S241.14,171.87,239.24,171.87 M237.59,177.33h0.78v-1.79h0.86l1.34,1.87l0.8-0.19l-1.42-1.85
			c0.55-0.26,0.96-0.62,0.96-1.25c0-0.75-0.74-1.12-1.68-1.12h-1.64V177.33z M238.37,173.44h0.71c0.52,0,1,0.2,1,0.73
			c0,0.37-0.21,0.94-1.23,0.94h-0.47V173.44z"/>
	</g>
</g>
</svg>
